<?xml version="1.0" standalone="no"?>
<!DOCTYPE svg PUBLIC "-//W3C//DTD SVG 20010904//EN"
 "http://www.w3.org/TR/2001/REC-SVG-20010904/DTD/svg10.dtd">
<svg version="1.0" xmlns="http://www.w3.org/2000/svg"
 width="512.000000pt" height="512.000000pt" viewBox="0 0 512.000000 512.000000"
 preserveAspectRatio="xMidYMid meet">
<metadata>
Created by potrace 1.14, written by Peter Selinger 2001-2017
</metadata>
<g transform="translate(0.000000,512.000000) scale(0.100000,-0.100000)"
fill="#000000" stroke="none">
<path d="M1282 4583 c-12 -15 -22 -33 -22 -40 0 -7 -3 -13 -7 -13 -5 0 -21
-23 -38 -50 -16 -27 -34 -50 -38 -50 -5 0 -5 -4 -2 -10 3 -5 1 -10 -4 -10 -6
0 -11 -7 -11 -15 0 -9 -7 -18 -15 -21 -8 -4 -12 -10 -9 -15 3 -5 -2 -9 -10 -9
-9 0 -13 -6 -10 -14 3 -8 0 -17 -5 -21 -6 -3 -9 -10 -6 -15 3 -5 -4 -11 -15
-15 -11 -4 -18 -11 -15 -16 4 -5 1 -9 -5 -9 -6 0 -8 -5 -4 -12 5 -8 2 -9 -11
-4 -15 5 -16 4 -5 -9 10 -12 10 -15 -4 -15 -14 0 -21 -12 -17 -33 1 -4 -6 -10
-14 -13 -8 -4 -15 -12 -15 -20 0 -8 -5 -14 -11 -14 -5 0 -7 -4 -4 -10 3 -5 1
-10 -5 -10 -6 0 -8 -5 -4 -12 5 -8 2 -9 -12 -4 -10 4 -15 4 -11 0 4 -4 -1 -17
-10 -28 -17 -20 -17 -20 2 -6 19 15 19 15 0 -12 -11 -15 -23 -28 -27 -28 -5 0
-8 -7 -8 -15 0 -8 -5 -15 -11 -15 -6 0 -9 -7 -5 -15 3 -10 -1 -15 -11 -15 -9
0 -13 -3 -10 -7 4 -3 -1 -12 -11 -20 -10 -9 -11 -11 -2 -7 13 7 13 5 1 -9 -7
-9 -17 -14 -22 -12 -4 3 -6 -4 -4 -15 2 -13 -1 -20 -11 -20 -8 0 -13 -6 -11
-12 1 -7 -4 -12 -11 -10 -8 1 -11 -2 -7 -8 4 -6 -1 -18 -11 -26 -11 -9 -13
-13 -4 -9 10 4 9 2 -2 -8 -10 -8 -15 -17 -11 -20 3 -4 2 -7 -4 -7 -6 0 -13 -9
-16 -21 -3 -12 -10 -18 -16 -15 -6 4 -8 -2 -6 -14 3 -13 -1 -20 -12 -20 -9 0
-13 -3 -10 -6 4 -4 -2 -15 -14 -24 -11 -10 -18 -24 -17 -31 2 -8 -3 -13 -10
-11 -8 1 -11 -2 -8 -7 4 -5 0 -15 -7 -23 -7 -7 -16 -21 -20 -30 -3 -10 -14
-18 -24 -18 -16 0 -16 -2 -3 -11 11 -8 12 -12 3 -16 -7 -2 -13 -11 -13 -19 0
-8 -7 -14 -16 -14 -8 0 -12 -4 -9 -10 3 -5 1 -10 -6 -10 -7 0 -9 -3 -6 -7 4
-3 -1 -12 -11 -20 -11 -10 -12 -12 -2 -8 8 4 5 -2 -7 -13 -12 -11 -19 -22 -16
-26 4 -3 1 -6 -5 -6 -7 0 -11 -3 -10 -7 4 -11 -28 -54 -34 -48 -5 6 -8 -12 -9
-67 -1 -24 -5 -35 -12 -31 -6 4 -7 1 -1 -8 5 -8 9 -32 10 -54 0 -34 3 -40 22
-39 11 0 19 -3 16 -8 -3 -4 -1 -8 5 -8 6 0 8 -8 5 -17 -5 -17 -5 -17 6 0 14
21 26 22 34 1 5 -12 2 -15 -11 -10 -14 6 -15 5 -6 -5 9 -9 16 -9 26 -1 8 7 17
9 20 5 4 -3 -1 -13 -11 -21 -11 -9 -8 -9 11 2 15 9 27 14 27 10 0 -4 7 0 16 7
15 12 16 11 10 -11 -6 -19 -5 -21 3 -10 9 13 12 12 26 -5 16 -19 16 -19 5 3
-14 29 -10 34 11 19 16 -12 19 -18 19 -38 0 -8 4 -9 13 0 8 6 17 8 20 4 4 -3
7 -1 7 6 0 8 -7 10 -21 6 -15 -5 -19 -4 -15 4 8 12 50 10 62 -2 4 -4 13 -2 21
5 11 9 13 8 11 -3 -2 -9 6 -14 25 -13 19 0 26 -4 22 -13 -2 -8 -1 -11 4 -8 5
3 11 0 14 -7 2 -7 3 -5 2 4 -4 21 11 33 20 18 4 -6 11 -7 17 -4 7 4 8 2 4 -4
-4 -7 -2 -12 4 -12 6 0 8 -5 5 -11 -5 -6 -12 -4 -21 8 -11 13 -14 14 -12 3 4
-21 17 -28 45 -25 17 2 23 -2 19 -11 -3 -7 -1 -16 3 -18 5 -3 8 5 7 17 -1 14
-7 21 -17 20 -9 -2 -15 6 -16 19 -2 18 0 20 7 8 5 -8 10 -11 10 -6 0 5 11 -3
25 -18 14 -15 23 -30 21 -34 -2 -4 8 -8 22 -9 24 -1 25 0 7 10 -22 12 -35 27
-35 42 1 6 6 2 14 -7 10 -14 15 -15 26 -5 10 10 12 9 7 -4 -4 -12 2 -15 23
-15 16 0 26 4 23 9 -3 5 3 5 13 -1 11 -5 30 -8 42 -7 17 1 26 -5 33 -21 5 -16
14 -22 24 -18 8 3 16 1 16 -5 3 -26 4 -30 11 -37 4 -3 5 4 3 16 -2 13 -1 29 3
37 6 11 12 9 30 -7 12 -12 22 -16 22 -10 0 5 7 10 15 10 8 0 15 -6 15 -12 0
-9 4 -8 10 2 7 11 10 12 10 2 0 -9 10 -12 27 -10 17 2 28 -2 29 -9 1 -7 3 -16
4 -20 1 -5 2 -11 2 -14 -2 -9 37 1 43 11 3 5 -3 6 -14 3 -21 -5 -37 12 -21 22
5 3 10 1 10 -4 0 -6 5 -11 11 -11 5 0 8 4 5 8 -3 5 1 9 8 9 9 0 13 -10 11 -24
-1 -13 0 -21 3 -18 3 2 12 -1 20 -8 13 -10 14 -9 7 3 -16 27 -15 41 3 31 10
-5 20 -9 25 -10 4 -1 8 -1 10 -2 1 -1 13 -3 27 -4 79 -11 120 -24 120 -39 0
-6 5 -4 10 4 8 13 11 13 22 1 11 -11 11 -13 -1 -6 -10 6 -12 4 -6 -5 6 -10 10
-10 20 3 10 14 14 13 38 -7 15 -13 23 -27 19 -31 -4 -5 -1 -5 7 0 8 4 17 2 23
-6 8 -11 9 -10 4 4 -3 11 0 17 10 17 9 0 12 5 8 13 -8 12 17 -5 44 -31 8 -7
17 -10 22 -7 5 3 11 1 15 -5 3 -5 12 -10 18 -10 7 0 4 5 -5 11 -20 11 -24 29
-7 29 5 0 7 -4 4 -10 -6 -9 10 -14 43 -13 6 1 12 -3 12 -8 0 -6 10 -5 21 2 17
9 20 8 14 -1 -6 -10 -1 -12 18 -8 15 3 24 1 21 -3 -3 -5 0 -9 6 -9 6 0 8 -5 4
-11 -3 -6 -9 -7 -13 -3 -3 5 -13 10 -21 12 -11 2 -10 -1 3 -12 10 -8 29 -13
43 -11 20 2 24 -1 19 -14 -5 -12 -3 -13 6 -4 14 14 3 34 -14 27 -8 -3 -13 4
-14 18 0 13 1 17 4 10 3 -6 9 -10 14 -6 5 3 9 0 9 -5 0 -6 7 -11 16 -11 8 0
12 -4 9 -10 -3 -6 1 -7 9 -4 9 3 13 11 9 18 -4 8 -2 8 7 -1 7 -6 19 -9 26 -6
8 3 14 0 14 -5 0 -6 -9 -9 -20 -7 -11 2 -23 -1 -26 -7 -5 -7 -2 -8 6 -3 10 6
12 3 7 -11 -6 -16 -5 -17 6 -4 6 8 19 16 27 18 8 2 18 8 21 14 4 5 9 3 12 -7
4 -9 3 -14 -1 -11 -5 3 -9 -1 -9 -9 0 -22 15 -18 23 7 6 19 7 19 16 5 7 -14
13 -15 31 -7 21 11 21 11 3 -4 -22 -18 -14 -21 13 -6 16 8 18 5 15 -16 -1 -14
0 -23 3 -20 4 3 13 0 22 -6 13 -10 13 -9 -1 7 -12 15 -14 24 -7 35 9 13 10 12
6 -2 -3 -9 0 -19 8 -22 9 -3 12 0 9 8 -3 7 2 13 10 13 8 0 13 -4 11 -7 -4 -7
21 -10 78 -10 32 1 56 4 52 9 -3 2 1 11 8 20 11 14 10 14 -6 2 -15 -12 -17
-12 -11 3 6 15 18 20 37 17 5 -1 6 3 2 9 -3 6 -12 8 -18 4 -7 -3 -3 2 7 10 11
9 16 16 12 16 -5 0 -3 6 3 13 6 8 7 18 3 22 -4 5 -1 5 6 1 11 -6 11 -11 0 -24
-12 -15 -11 -16 4 -4 9 8 15 19 12 27 -3 7 0 16 5 20 6 3 9 11 6 16 -4 5 5 13
18 18 19 8 23 15 20 35 -3 15 -1 26 6 26 6 0 8 -8 4 -17 -3 -10 -3 -15 1 -11
4 3 9 14 10 24 2 10 9 20 16 22 8 3 10 0 5 -8 -5 -8 -4 -11 3 -7 12 8 11 25
-2 46 -6 10 -5 12 2 7 8 -4 12 0 12 11 0 14 2 15 9 5 6 -10 10 -9 14 7 3 12 1
24 -4 27 -14 8 -1 24 15 18 9 -3 13 1 13 13 -1 9 3 18 10 18 6 0 15 4 20 9 4
5 3 6 -4 2 -6 -3 -14 -2 -18 4 -6 10 7 14 33 11 6 -1 12 3 12 9 0 6 -4 8 -10
5 -5 -3 -10 1 -10 10 0 11 5 15 16 11 8 -3 12 -2 9 3 -3 5 5 17 17 25 25 18
17 21 -13 5 -18 -9 -19 -8 -7 10 6 11 16 17 20 15 4 -3 9 0 9 5 1 6 2 16 3 22
0 6 9 16 19 23 19 15 23 31 5 20 -7 -4 -2 5 11 19 28 31 36 34 27 11 -3 -8 -2
-12 4 -9 6 3 7 17 4 31 -4 17 -1 26 10 30 9 3 13 11 10 16 -4 6 2 8 17 4 20
-6 21 -5 7 4 -9 6 -15 17 -12 25 4 8 10 12 15 9 5 -3 9 4 9 15 0 22 27 54 40
46 5 -3 11 -1 15 4 3 6 -4 8 -17 6 -23 -4 -23 -4 2 15 13 10 28 16 32 14 3 -2
10 1 14 7 4 7 3 9 -3 6 -6 -4 -14 0 -17 9 -3 9 -2 12 5 9 6 -4 10 -1 8 6 -3
27 1 40 12 33 8 -5 8 -9 -1 -14 -8 -5 -7 -9 4 -13 9 -4 15 -1 13 5 -1 7 3 12
10 13 6 0 15 3 19 7 3 4 -3 6 -15 3 -14 -3 -21 1 -21 12 0 9 6 13 15 9 13 -4
14 -2 5 14 -10 19 -6 24 14 21 5 -1 6 5 3 14 -4 9 -1 15 9 15 8 0 12 5 9 10
-3 6 -1 10 5 10 6 0 8 5 5 10 -3 6 -2 10 3 10 5 0 9 6 9 13 0 7 8 25 17 40 17
25 28 32 49 28 5 -1 6 3 2 9 -3 6 -10 8 -15 5 -4 -3 -3 6 3 19 7 13 15 22 19
20 5 -3 8 4 8 15 0 12 5 21 10 21 6 0 9 6 8 13 -2 6 5 12 14 12 9 0 20 4 25 9
4 5 3 6 -3 3 -7 -4 -14 -1 -17 6 -6 16 20 41 28 27 3 -6 1 -10 -6 -10 -7 0
-10 -3 -6 -6 13 -14 27 7 17 27 -14 24 5 26 19 2 9 -16 10 -16 8 4 0 12 -4 20
-8 17 -4 -2 -10 0 -14 6 -3 5 2 10 12 10 15 0 16 2 3 10 -13 8 -13 10 2 10 11
0 15 5 12 15 -4 10 0 15 11 15 9 0 14 -4 10 -9 -3 -5 -1 -12 4 -15 5 -4 8 2 7
11 -2 10 2 22 8 26 7 6 4 7 -6 3 -10 -3 -18 -1 -18 4 0 6 5 10 11 10 5 0 7 5
3 12 -5 7 -2 9 8 6 8 -4 20 -3 27 2 10 5 9 9 -4 13 -10 5 -14 3 -9 -5 5 -7 3
-8 -5 -3 -17 10 17 45 46 47 11 1 20 8 20 15 0 10 -4 10 -11 3 -14 -14 -23
-13 -23 5 0 8 4 12 9 9 7 -5 12 10 9 29 -1 5 3 6 8 3 8 -6 26 40 22 57 -1 5 3
6 8 3 5 -4 15 7 22 23 8 19 18 27 28 23 10 -4 12 -1 6 9 -4 8 -5 11 0 7 4 -4
14 -3 22 4 18 14 31 1 13 -15 -10 -10 -11 -9 -5 2 6 10 4 12 -4 7 -15 -10 -6
-21 17 -21 12 0 16 -8 15 -25 -1 -14 1 -19 3 -12 8 17 27 15 21 -3 -4 -8 -2
-17 4 -21 6 -3 8 -12 5 -20 -3 -8 0 -11 10 -7 13 5 13 8 -2 24 -10 11 -12 19
-6 19 7 0 12 -4 12 -8 0 -4 15 -25 34 -45 19 -20 30 -39 26 -42 -5 -3 -11 -1
-15 5 -8 13 -25 13 -25 0 0 -6 6 -9 13 -8 6 2 11 -3 9 -10 -1 -8 2 -11 7 -8 5
4 12 2 16 -3 3 -6 12 -8 20 -4 10 3 15 -1 15 -12 0 -9 -4 -14 -8 -11 -5 3 -9
-1 -9 -8 0 -8 7 -12 15 -8 11 4 13 1 7 -8 -5 -8 -4 -11 3 -6 6 4 8 14 5 23 -6
15 -5 16 9 3 10 -10 13 -19 7 -26 -6 -7 -3 -16 8 -25 16 -12 17 -12 6 2 -10
13 -10 16 2 16 8 0 12 -4 10 -7 -3 -4 3 -17 13 -28 9 -11 23 -29 30 -39 7 -10
10 -12 7 -5 -9 18 -2 15 18 -8 17 -20 16 -20 -10 -15 -23 4 -22 3 5 -7 36 -12
40 -22 15 -37 -24 -14 -7 -14 18 -1 10 6 19 7 19 2 0 -14 41 -57 52 -54 5 1 6
-2 3 -8 -4 -6 1 -17 11 -24 20 -15 10 -40 -13 -32 -8 3 -11 1 -8 -4 4 -6 14
-9 23 -8 11 2 16 -3 14 -12 -2 -8 0 -12 4 -8 4 4 13 3 21 -3 22 -19 15 -1 -9
22 -14 13 -17 20 -8 17 8 -2 22 -18 31 -36 9 -17 19 -29 23 -25 3 3 6 1 6 -6
0 -7 5 -9 13 -5 6 4 9 4 5 -1 -4 -4 -2 -15 5 -23 6 -9 7 -13 1 -9 -6 3 -11 0
-11 -7 0 -7 8 -11 16 -9 9 2 27 -7 40 -21 30 -32 20 -35 -10 -3 l-23 22 17
-26 c10 -17 12 -30 6 -38 -6 -8 -6 -8 3 -1 18 15 38 12 38 -6 0 -10 6 -14 14
-11 9 4 12 0 9 -12 -3 -12 2 -20 16 -24 12 -3 21 -11 21 -19 0 -10 -3 -9 -10
2 -7 10 -10 11 -10 2 0 -7 7 -15 15 -18 8 -4 12 -11 8 -18 -5 -8 -3 -8 8 0 11
8 21 3 47 -27 23 -26 29 -40 21 -45 -8 -5 -9 -3 -4 6 5 9 4 11 -3 6 -20 -12
-13 -28 9 -21 18 6 19 5 10 -13 -16 -30 -13 -39 4 -16 14 19 15 18 34 -6 11
-13 17 -29 14 -34 -4 -5 1 -6 12 -2 15 5 16 4 6 -8 -9 -11 -8 -14 6 -12 12 1
17 -5 15 -16 -2 -11 3 -18 12 -18 8 0 28 -17 43 -37 15 -21 31 -39 36 -41 4
-2 7 -13 7 -25 0 -18 2 -19 10 -7 8 12 10 10 10 -8 0 -15 -4 -21 -12 -16 -7 4
-8 3 -4 -5 6 -9 11 -9 22 0 10 8 14 8 14 0 0 -18 -4 -26 -12 -23 -5 1 -8 -2
-8 -8 0 -12 10 -13 29 -1 19 12 51 -19 38 -36 -7 -10 -4 -13 12 -13 11 0 21
-5 21 -11 0 -5 -4 -8 -9 -4 -5 3 -12 1 -15 -4 -10 -15 33 -39 56 -33 16 4 19
2 13 -9 -6 -11 -5 -12 6 -1 7 6 18 12 24 12 5 0 4 -4 -3 -9 -11 -7 -11 -9 2
-14 10 -4 16 -1 16 9 0 8 5 12 10 9 6 -4 8 -11 5 -16 -4 -5 -1 -9 4 -9 6 0 11
6 11 14 0 9 9 14 20 13 11 -1 20 -7 20 -13 0 -7 6 -14 13 -16 16 -7 37 1 37
14 0 7 -5 6 -14 -1 -10 -9 -15 -8 -19 3 -4 11 -1 13 10 9 12 -5 14 -3 8 7 -6
10 -4 11 6 4 17 -11 79 -14 79 -4 0 4 12 5 28 2 25 -5 26 -4 12 13 -13 17 -13
18 0 10 8 -5 -3 10 -25 34 -22 23 -39 47 -37 53 1 5 -1 7 -5 5 -5 -2 -17 5
-28 16 -11 11 -13 17 -5 12 8 -4 0 6 -17 23 -18 17 -33 36 -33 42 0 6 -5 8
-12 4 -8 -5 -9 -2 -5 10 4 9 3 15 -1 13 -9 -6 -33 19 -25 27 4 3 -1 6 -10 6
-9 0 -17 7 -17 16 0 8 -4 12 -10 9 -5 -3 -10 3 -10 15 0 12 -4 18 -10 15 -9
-6 -14 8 -11 28 0 4 -5 7 -12 7 -7 0 -20 9 -30 20 -9 11 -14 20 -10 20 4 0 -3
7 -15 16 -12 8 -20 19 -17 24 3 5 -4 12 -16 15 -17 6 -19 9 -8 16 12 7 11 9
-1 9 -18 0 -51 35 -43 44 4 3 -2 6 -13 6 -16 0 -17 2 -4 10 13 8 13 10 -1 10
-22 0 -53 46 -36 54 8 3 7 5 -3 5 -30 -2 -40 1 -40 14 0 7 -20 35 -44 62 -25
27 -43 52 -40 56 2 4 -6 9 -17 12 -12 3 -18 10 -15 15 3 6 -1 13 -10 16 -8 3
-12 11 -8 17 4 8 3 9 -5 5 -6 -4 -14 0 -17 8 -3 9 -14 16 -23 16 -14 0 -14 2
-1 10 10 6 11 10 3 10 -7 0 -13 8 -13 17 0 9 -3 14 -6 10 -7 -7 -34 17 -34 31
0 5 -12 17 -26 27 -15 10 -23 22 -20 31 3 9 1 12 -4 9 -6 -3 -10 -1 -10 4 0 6
-7 11 -15 11 -8 0 -14 3 -14 8 3 19 -2 32 -14 32 -6 0 -18 14 -25 30 -8 17
-17 28 -22 25 -8 -5 -25 24 -21 38 1 5 -3 6 -8 3 -12 -8 -34 21 -26 34 4 6 3
9 -2 8 -14 -5 -56 40 -49 51 4 7 1 8 -8 5 -9 -3 -16 -1 -16 5 0 6 -8 19 -17
29 -37 39 -83 97 -83 104 0 5 -7 8 -15 8 -9 0 -12 6 -8 17 4 11 3 14 -5 9 -11
-6 -17 5 -13 27 0 4 -8 7 -19 7 -18 0 -25 10 -21 33 0 4 -6 7 -14 7 -8 0 -15
5 -15 11 0 6 -9 9 -20 6 -11 -3 -20 0 -20 6 0 8 -3 8 -8 2 -9 -13 -62 -14 -62
-2 0 5 -7 4 -15 -3 -12 -10 -15 -10 -15 1 0 11 -3 11 -11 -1 -8 -11 -12 -12
-15 -3 -4 8 -13 9 -30 3 -17 -7 -24 -6 -24 3 0 8 -4 7 -10 -3 -9 -13 -11 -13
-20 0 -7 11 -10 11 -10 2 0 -9 -5 -10 -19 -2 -14 7 -22 7 -27 -1 -4 -8 -9 -7
-15 2 -5 8 -9 9 -9 4 0 -6 -9 -11 -20 -11 -11 0 -20 4 -20 8 0 5 -9 4 -19 -2
-14 -7 -22 -7 -27 1 -4 8 -9 7 -16 -2 -7 -11 -11 -11 -15 -2 -3 9 -10 10 -21
4 -21 -11 -33 -11 -53 0 -9 4 -19 5 -23 2 -11 -11 -46 -10 -46 1 0 6 -4 6 -11
-1 -8 -8 -20 -8 -34 -3 -13 5 -26 6 -29 2 -10 -10 -89 -2 -104 10 -10 9 -16 8
-23 -3 -8 -12 -10 -12 -19 1 -7 11 -10 11 -10 2 0 -8 -5 -10 -12 -5 -19 11
-39 13 -32 2 8 -13 -10 -11 -25 4 -11 10 -13 10 -7 0 4 -7 2 -13 -3 -13 -6 0
-11 6 -11 13 0 9 -3 8 -9 -2 -6 -9 -10 -10 -16 -2 -5 9 -10 9 -21 0 -11 -9
-14 -8 -14 2 0 10 -3 10 -12 1 -16 -16 -31 -15 -22 1 6 10 4 10 -7 0 -16 -16
-33 -17 -23 -2 5 8 1 8 -14 0 -14 -7 -23 -8 -27 -1 -4 7 -13 7 -24 0 -12 -6
-22 -5 -31 3 -10 9 -14 9 -17 -1 -4 -10 -8 -10 -21 0 -12 10 -14 10 -8 1 4 -7
2 -13 -3 -13 -6 0 -11 6 -11 13 0 8 -4 7 -10 -3 -7 -12 -13 -13 -28 -3 -11 6
-24 8 -33 3 -7 -5 -18 -5 -24 0 -12 10 -33 9 -52 -3 -6 -4 -15 -3 -18 3 -5 8
-11 8 -20 0 -9 -8 -15 -8 -20 0 -4 7 -12 7 -25 0 -12 -7 -21 -7 -25 0 -6 10
-33 9 -52 -3 -6 -4 -14 -3 -17 2 -6 9 -57 8 -74 -3 -6 -3 -13 0 -15 6 -4 10
-6 10 -6 1 -1 -7 -6 -13 -12 -13 -5 0 -8 4 -4 9 6 10 -17 8 -49 -5 -15 -6 -17
-4 -11 7 6 11 5 12 -6 2 -15 -15 -33 -18 -25 -5 3 5 -1 9 -9 9 -8 0 -15 -4
-15 -9 0 -4 -5 -8 -11 -8 -5 0 -8 4 -5 8 2 4 -4 8 -15 8 -10 0 -19 -4 -19 -8
0 -4 -5 -8 -11 -8 -5 0 -7 5 -3 11 4 8 0 8 -15 0 -16 -9 -21 -9 -21 1 0 10 -2
10 -9 -1 -7 -11 -9 -11 -14 0 -5 12 -6 12 -6 0 -1 -11 -4 -11 -18 0 -11 10
-14 10 -9 2 4 -7 2 -13 -3 -13 -6 0 -11 6 -11 13 0 8 -4 7 -10 -3 -5 -8 -10
-10 -10 -4 0 8 -59 12 -193 12 l-194 1 -21 -26z m2348 -383 c0 -5 -2 -10 -4
-10 -3 0 -8 5 -11 10 -3 6 -1 10 4 10 6 0 11 -4 11 -10z m-680 -634 c0 -3 -4
-8 -10 -11 -5 -3 -10 -1 -10 4 0 6 5 11 10 11 6 0 10 -2 10 -4z m-2375 -446
c5 -8 11 -8 19 -1 9 8 13 7 13 -3 0 -12 -16 -14 -37 -6 -3 1 -8 2 -12 1 -5 0
-8 4 -8 9 0 13 17 13 25 0z m3975 -6 c0 -12 -4 -12 -20 -4 -11 6 -20 12 -20
13 0 2 9 3 20 4 12 1 20 -4 20 -13z m-3500 -94 c0 -5 -5 -10 -11 -10 -5 0 -7
5 -4 10 3 6 8 10 11 10 2 0 4 -4 4 -10z m150 -43 c0 -2 -8 -3 -18 -3 -10 0
-19 6 -19 13 0 8 6 9 19 2 10 -5 18 -11 18 -12z m570 -117 c0 -5 -4 -10 -9
-10 -6 0 -13 5 -16 10 -3 6 1 10 9 10 9 0 16 -4 16 -10z m90 -20 c0 -5 -2 -10
-4 -10 -3 0 -8 5 -11 10 -3 6 -1 10 4 10 6 0 11 -4 11 -10z"/>
<path d="M3420 4335 c-6 -8 -10 -20 -7 -27 3 -8 6 -6 6 5 1 10 11 22 24 27 15
6 17 9 6 9 -9 1 -22 -6 -29 -14z"/>
<path d="M3480 4340 c-9 -6 -10 -10 -3 -10 6 0 15 5 18 10 8 12 4 12 -15 0z"/>
<path d="M3395 4294 c2 -4 0 -14 -5 -24 -6 -12 -5 -17 4 -17 13 0 15 32 3 42
-4 3 -5 2 -2 -1z"/>
<path d="M3446 4258 c3 -4 0 -8 -6 -8 -7 0 -10 -7 -6 -15 3 -8 1 -15 -5 -15
-6 0 -7 -4 -4 -10 3 -5 2 -10 -4 -10 -5 0 -12 6 -15 13 -3 6 -3 1 0 -12 4 -16
3 -21 -6 -16 -7 4 -10 2 -9 -6 3 -19 -18 -69 -30 -69 -8 0 -24 -37 -22 -52 1
-5 -4 -8 -9 -8 -5 0 -10 -7 -10 -15 0 -8 -5 -15 -11 -15 -5 0 -7 -4 -4 -10 3
-5 1 -10 -4 -10 -6 0 -11 -6 -11 -14 0 -8 -7 -16 -15 -20 -8 -3 -15 -9 -14
-13 3 -17 -1 -33 -8 -32 -20 3 -26 -2 -13 -11 10 -6 11 -10 3 -10 -7 0 -13 -6
-13 -14 0 -7 -9 -25 -21 -40 -11 -14 -18 -26 -15 -26 8 0 -40 -76 -68 -109
-12 -13 -15 -21 -7 -16 9 5 7 -2 -5 -18 -10 -15 -23 -27 -27 -27 -5 0 -5 -4
-2 -10 3 -5 1 -10 -5 -10 -6 0 -9 -4 -6 -9 4 -5 3 -11 -1 -13 -5 -1 -15 -16
-24 -33 -9 -16 -21 -29 -27 -27 -16 3 -15 -15 1 -21 10 -4 10 -6 0 -6 -7 -1
-13 -6 -13 -12 0 -6 -13 -30 -30 -54 -16 -24 -30 -48 -30 -54 0 -6 -10 -21
-22 -33 -13 -13 -23 -27 -23 -33 0 -24 -51 -95 -64 -90 -12 5 -12 3 -1 -11 12
-13 11 -17 0 -24 -8 -5 -17 -7 -21 -5 -3 3 -4 -6 -2 -19 3 -13 -1 -27 -8 -31
-8 -6 -10 -4 -4 5 5 8 4 11 -3 7 -5 -4 -8 -17 -4 -30 5 -19 4 -20 -11 -9 -14
12 -16 11 -12 -7 2 -12 0 -21 -6 -21 -5 0 -8 -3 -8 -7 3 -20 -2 -26 -11 -13
-8 11 -9 7 -4 -14 5 -19 3 -27 -3 -23 -6 4 -13 -3 -16 -14 -3 -12 -10 -18 -15
-15 -6 3 -8 -2 -5 -14 4 -13 -3 -27 -18 -41 -13 -11 -18 -17 -11 -14 11 6 11
3 0 -14 -7 -12 -16 -21 -21 -21 -4 0 -5 -4 -2 -10 3 -5 -1 -10 -9 -10 -8 0
-18 -5 -22 -12 -5 -7 -3 -8 6 -3 10 6 12 4 7 -9 -4 -10 -7 -20 -7 -22 0 -3 -5
-2 -12 2 -8 5 -9 2 -5 -9 3 -10 2 -17 -4 -17 -6 0 -7 -4 -4 -10 3 -5 2 -10 -4
-10 -5 0 -13 -9 -16 -20 -4 -11 -11 -18 -16 -15 -5 3 -6 -1 -3 -9 3 -8 -4 -24
-15 -35 -12 -12 -21 -23 -21 -26 0 -3 0 -9 0 -15 0 -5 -12 -21 -27 -36 -25
-25 -27 -26 -40 -8 -12 17 -13 17 -13 -1 0 -15 -3 -16 -12 -7 -7 7 -22 12 -34
12 -12 0 -25 6 -27 13 -4 9 -6 9 -6 -1 -1 -8 -6 -10 -13 -5 -15 9 -30 13 -75
20 -18 3 -33 8 -33 12 0 3 -11 7 -25 7 -16 1 -23 -2 -19 -10 3 -6 0 -4 -8 4
-7 9 -21 14 -30 12 -10 -2 -18 0 -18 5 0 4 -10 14 -22 22 -21 13 -22 13 -9 -3
22 -26 4 -31 -20 -5 -11 13 -17 18 -13 10 4 -9 2 -12 -7 -9 -8 3 -13 10 -12
16 2 6 -4 9 -12 6 -8 -4 -12 -11 -8 -18 4 -6 -1 -5 -10 3 -10 8 -30 14 -45 15
-15 1 -32 5 -38 8 -6 4 -25 9 -43 10 -17 1 -31 5 -31 9 0 3 -8 6 -17 6 -61 0
-78 4 -63 13 9 6 10 10 3 10 -6 0 -15 -5 -18 -11 -5 -6 -11 -4 -19 7 -10 13
-15 14 -20 5 -6 -9 -13 -8 -29 6 -11 10 -18 13 -14 7 3 -6 0 -11 -8 -11 -8 0
-12 4 -10 8 3 4 -2 10 -11 13 -9 4 -13 2 -8 -5 4 -8 -1 -9 -17 -3 -13 4 -34 8
-46 9 -13 0 -23 2 -23 5 0 3 -9 11 -20 17 -17 11 -18 10 -13 -5 6 -15 5 -15
-10 -4 -9 8 -21 11 -26 8 -5 -4 -12 -2 -16 4 -4 6 -11 8 -16 5 -5 -4 -9 -1 -9
4 0 6 -5 11 -11 11 -5 0 -7 -6 -3 -12 6 -10 5 -10 -8 -1 -8 7 -19 9 -23 5 -5
-4 -4 -1 0 7 6 11 4 13 -8 8 -12 -4 -15 -1 -11 11 3 9 -2 6 -10 -8 l-15 -25
-1 25 c0 14 -4 20 -8 14 -8 -13 -44 -15 -36 -2 8 13 -10 10 -25 -4 -11 -10
-13 -10 -7 0 4 6 4 12 -1 13 -4 0 -24 2 -43 3 -19 1 -45 7 -57 14 -17 9 -22 9
-26 -1 -4 -9 -6 -9 -6 1 -1 7 -6 10 -11 7 -6 -3 -10 -1 -10 5 0 6 -4 9 -9 6
-5 -4 -12 0 -14 6 -4 10 -6 10 -6 1 -1 -9 -8 -10 -23 -4 -13 4 -29 6 -37 3 -8
-2 -11 0 -8 5 3 5 -10 10 -30 10 -20 1 -38 5 -42 10 -3 5 -21 9 -38 8 -23 0
-33 5 -33 15 0 13 -1 13 -10 0 -8 -12 -10 -12 -10 -1 0 10 -3 11 -13 2 -17
-13 -27 -5 -21 17 4 13 3 13 -6 -1 -11 -17 -13 -17 -30 -2 -12 11 -20 13 -25
5 -10 -16 -25 -2 -19 18 5 15 5 15 -6 -1 -9 -13 -15 -15 -31 -7 -11 6 -24 8
-29 5 -6 -3 -10 -2 -10 3 0 6 -6 10 -13 9 -6 0 -23 1 -37 2 -20 1 -22 3 -10
11 9 6 10 10 3 10 -6 0 -15 -5 -19 -11 -4 -8 -9 -7 -15 2 -7 12 -9 12 -9 0 0
-11 -5 -10 -20 4 -17 15 -20 16 -15 3 4 -9 2 -19 -4 -23 -6 -3 -8 -14 -3 -23
9 -22 9 -53 -2 -71 -5 -8 -4 -16 4 -21 8 -5 8 -9 -4 -13 -9 -4 -13 -13 -10
-22 3 -8 11 -12 18 -8 6 3 6 1 -1 -8 -16 -16 -17 -33 -1 -23 7 5 8 3 2 -7 -14
-23 -15 -49 -1 -49 8 0 8 -3 -2 -9 -8 -5 -10 -14 -5 -22 11 -18 13 -49 2 -43
-11 7 -10 -7 2 -26 6 -10 4 -20 -6 -31 -13 -15 -13 -17 3 -23 14 -6 15 -9 3
-16 -11 -7 -11 -11 -1 -23 8 -11 9 -17 1 -22 -8 -5 -7 -11 2 -23 7 -9 8 -13 2
-9 -7 4 -11 -2 -11 -18 0 -15 4 -22 11 -18 6 3 2 -4 -8 -16 -20 -22 -20 -22 0
-15 17 7 18 6 5 -10 -12 -14 -12 -19 -2 -25 10 -6 9 -10 -3 -14 -9 -4 -13 -13
-10 -22 3 -8 11 -12 18 -8 6 3 6 1 -1 -8 -16 -16 -17 -33 -1 -23 7 5 8 3 2 -7
-14 -23 -15 -49 -1 -49 8 0 8 -3 -2 -9 -8 -5 -10 -14 -5 -22 11 -18 13 -49 2
-43 -11 7 -10 -7 2 -26 6 -10 4 -20 -6 -31 -13 -15 -13 -17 3 -23 14 -6 15 -9
3 -16 -11 -7 -11 -11 -1 -23 8 -11 9 -17 1 -22 -8 -5 -7 -11 2 -23 7 -9 8 -13
2 -9 -7 4 -11 -2 -11 -18 0 -15 4 -22 11 -18 6 3 2 -4 -8 -16 -20 -22 -20 -22
0 -15 17 7 18 6 4 -11 -12 -14 -12 -19 -2 -23 10 -3 8 -8 -5 -18 -17 -13 -17
-14 1 -25 14 -9 15 -13 5 -19 -10 -7 -10 -12 0 -23 9 -11 9 -17 0 -22 -8 -6
-7 -10 2 -16 8 -5 9 -9 3 -9 -6 0 -11 -11 -11 -25 0 -15 4 -22 11 -18 6 3 0
-6 -14 -21 -15 -17 -19 -26 -10 -24 8 2 14 -1 15 -7 0 -5 4 -15 8 -22 4 -6 2
-15 -4 -19 -8 -5 -9 -3 -4 6 6 9 4 11 -5 5 -10 -6 -9 -11 5 -22 11 -7 14 -13
8 -13 -6 0 -10 -11 -10 -25 0 -15 4 -22 11 -19 6 3 3 -1 -7 -9 -17 -14 -17
-15 0 -21 14 -6 15 -9 3 -16 -11 -7 -11 -11 -1 -23 9 -11 9 -17 0 -22 -8 -6
-7 -10 2 -16 8 -5 9 -9 3 -9 -6 0 -11 -11 -11 -25 0 -13 4 -22 9 -19 6 4 5 -3
-1 -14 -8 -14 -8 -23 -1 -27 8 -5 7 -11 -1 -21 -7 -8 -7 -14 -1 -14 5 0 13 -7
16 -16 5 -13 4 -14 -7 -6 -10 9 -14 8 -14 -2 0 -9 10 -13 29 -12 29 2 36 -12
16 -32 -7 -7 -9 -12 -6 -12 4 0 14 7 23 16 9 9 23 13 33 9 16 -6 15 -8 -3 -22
-14 -11 -15 -14 -4 -10 9 3 22 0 28 -6 9 -9 11 -8 6 4 -4 10 -1 20 6 25 8 5
10 3 5 -5 -5 -8 0 -14 14 -18 12 -3 19 -11 16 -18 -3 -8 1 -16 8 -18 10 -4 12
1 9 16 -5 22 -5 22 10 2 12 -15 13 -23 4 -35 -9 -12 -8 -12 8 1 30 24 49 34
41 21 -3 -6 -2 -13 3 -17 6 -3 8 -13 5 -23 -5 -13 -4 -14 4 -3 7 9 12 10 16 2
5 -7 13 -8 24 -2 16 9 61 -5 63 -21 1 -4 2 -12 3 -17 0 -5 4 -13 8 -16 4 -4 5
5 3 21 -2 16 -2 23 1 16 3 -6 9 -10 13 -7 5 2 7 -7 5 -20 -2 -22 0 -23 17 -15
24 13 25 21 2 14 -15 -5 -16 -4 -3 5 11 8 18 7 25 -3 6 -7 18 -12 27 -10 10 1
16 -3 15 -9 -1 -7 6 -11 15 -11 10 1 18 -2 18 -7 0 -5 6 -6 14 -3 8 3 17 0 21
-5 3 -6 11 -8 17 -5 7 4 8 2 4 -4 -5 -8 0 -12 13 -12 24 0 27 -10 9 -28 -8 -8
-8 -12 -1 -12 6 0 14 7 17 15 4 12 10 13 25 6 10 -6 22 -7 26 -3 5 4 5 1 1 -5
-5 -9 0 -13 14 -13 12 0 18 -5 15 -10 -4 -6 -10 -8 -14 -6 -4 3 -8 -1 -8 -8 0
-7 6 -13 13 -13 7 0 11 4 8 9 -3 4 4 8 15 8 10 0 22 6 25 13 3 6 4 3 1 -8 -2
-11 0 -27 6 -35 9 -13 10 -12 5 2 -7 23 9 32 24 13 7 -8 16 -12 21 -9 5 3 9 1
9 -4 0 -5 6 -9 13 -10 32 -3 119 -40 125 -55 2 -4 8 -5 13 -2 5 4 6 -2 2 -12
-6 -16 -5 -16 11 -4 11 10 20 11 24 4 4 -5 19 -13 35 -17 15 -3 27 -11 27 -17
0 -6 -4 -7 -10 -4 -5 3 -10 1 -10 -4 0 -14 17 -14 26 0 4 8 12 3 21 -12 14
-23 14 -23 10 -2 -4 19 -3 20 14 10 10 -6 19 -18 19 -25 0 -7 -4 -11 -9 -7 -5
3 -12 1 -15 -4 -4 -5 1 -8 11 -7 9 2 20 11 24 22 4 10 8 14 8 8 1 -18 29 -12
34 8 3 10 1 16 -4 12 -13 -8 -11 20 2 33 8 8 8 13 -1 18 -8 5 -6 11 7 22 10 8
13 12 6 9 -13 -7 -22 12 -15 36 2 10 9 15 16 11 6 -4 5 1 -3 10 -19 24 -20 99
-1 115 8 8 10 11 3 8 -6 -4 -14 -2 -18 4 -3 5 -1 10 4 10 6 0 11 9 11 21 0 11
-4 18 -8 15 -4 -2 -8 4 -8 15 0 10 4 19 8 19 5 0 4 9 -2 20 -7 14 -7 20 0 20
5 0 10 5 10 11 0 5 -5 7 -10 4 -16 -10 -7 18 10 33 13 12 13 13 0 9 -10 -3
-16 2 -16 14 0 11 4 15 11 9 6 -5 10 2 10 21 1 19 -4 28 -11 25 -16 -6 -12 26
6 42 8 8 10 11 3 8 -13 -7 -22 12 -15 36 2 10 9 15 16 11 6 -4 5 0 -2 9 -16
20 -24 88 -11 88 5 0 9 5 9 11 0 5 -5 7 -10 4 -16 -10 -7 18 10 33 13 12 13
13 0 9 -10 -3 -16 2 -16 14 0 11 4 15 11 9 6 -5 10 2 10 21 1 19 -4 28 -11 25
-16 -6 -12 26 6 42 8 8 10 11 4 8 -16 -8 -23 14 -14 39 4 11 3 28 -2 38 -8 15
-5 20 11 24 12 3 21 10 21 15 0 5 -4 7 -8 4 -4 -2 -14 -1 -21 3 -9 6 -10 11
-2 15 6 4 11 1 12 -6 0 -7 4 -4 9 7 7 16 9 17 9 3 1 -9 5 -20 11 -23 5 -3 8 0
7 7 -2 7 -2 10 0 5 3 -4 9 -5 14 -2 5 4 6 -2 2 -12 -5 -15 -3 -16 8 -5 18 16
29 15 29 -4 0 -8 5 -12 10 -9 6 4 8 11 4 17 -3 5 8 2 25 -7 17 -9 36 -13 41
-10 5 3 8 -4 7 -15 -1 -14 -6 -19 -17 -15 -12 5 -12 4 -3 -6 10 -10 15 -9 28
1 8 7 15 9 15 5 0 -4 7 -1 16 6 15 12 16 11 9 -10 -6 -21 -5 -22 8 -10 8 8 12
18 9 23 -3 5 0 6 6 2 9 -5 7 -15 -4 -34 -15 -25 -15 -26 0 -7 10 12 20 16 24
10 4 -6 14 -11 22 -13 11 -2 11 1 -2 11 -10 8 -18 18 -18 22 0 4 6 2 13 -4 8
-6 17 -8 20 -4 4 3 7 -1 7 -11 0 -14 3 -15 23 -5 20 11 21 11 8 -4 -9 -12 -10
-17 -2 -17 7 0 9 -5 5 -12 -4 -7 -3 -8 5 -4 6 4 9 13 5 19 -3 7 2 3 11 -8 17
-20 17 -20 10 5 -7 22 -6 23 8 12 9 -8 15 -19 13 -25 -1 -7 -1 -9 1 -5 3 5 13
3 23 -2 13 -7 21 -7 26 2 5 7 3 8 -6 3 -9 -5 -11 -4 -6 3 5 9 13 9 29 0 12 -7
28 -11 35 -10 7 2 11 -3 10 -10 -2 -7 2 -12 7 -11 6 1 11 -12 11 -28 1 -16 -2
-29 -7 -29 -5 0 -9 -5 -9 -11 0 -5 5 -7 10 -4 16 10 12 -6 -7 -29 -17 -20 -17
-20 0 -7 15 12 17 11 17 -3 0 -9 -6 -16 -12 -16 -9 0 -8 -4 2 -10 13 -9 13
-11 0 -20 -13 -9 -13 -10 0 -10 13 0 13 -1 0 -10 -10 -6 -11 -10 -2 -10 6 0
12 -7 12 -15 0 -8 -6 -15 -12 -15 -9 0 -8 -4 2 -10 13 -9 13 -11 0 -20 -10 -6
-11 -10 -2 -10 6 0 12 -5 12 -11 0 -5 -6 -7 -12 -3 -10 5 -10 4 -1 -6 10 -11
9 -16 -5 -27 -16 -12 -16 -13 0 -7 14 5 16 -1 15 -38 -1 -24 -6 -48 -10 -55
-4 -6 -3 -14 2 -17 15 -10 10 -80 -7 -101 -16 -18 -16 -19 0 -7 15 12 17 10
16 -20 0 -18 -8 -42 -17 -53 -15 -18 -15 -19 1 -7 15 12 17 10 16 -20 0 -18
-8 -42 -17 -53 -15 -18 -15 -19 1 -7 15 12 17 10 16 -20 0 -18 -8 -42 -17 -53
-15 -18 -15 -19 1 -7 15 12 17 10 16 -17 -1 -17 -4 -28 -8 -26 -4 2 -7 -3 -7
-11 0 -8 6 -13 13 -10 7 3 10 -2 7 -15 -3 -10 -9 -17 -13 -14 -5 3 -12 0 -16
-6 -4 -7 -3 -9 4 -5 6 3 14 1 18 -5 3 -6 0 -15 -7 -20 -10 -6 -11 -9 -1 -9 6
0 12 -7 12 -16 0 -8 -4 -13 -8 -10 -5 3 -9 -1 -9 -9 0 -8 4 -12 9 -9 14 9 9
-9 -9 -30 -17 -20 -17 -20 0 -7 10 8 17 9 17 3 0 -6 -5 -14 -10 -17 -7 -4 -7
-11 -2 -18 5 -7 9 -34 9 -60 1 -54 3 -57 31 -60 11 0 18 -5 16 -9 -3 -4 0 -8
6 -8 6 0 8 -5 4 -11 -4 -8 0 -9 15 -4 17 5 20 3 14 -12 -6 -16 -5 -16 10 -4
14 11 20 11 34 0 9 -8 18 -13 20 -11 8 6 23 1 23 -9 0 -6 -5 -7 -12 -2 -20 12
-38 12 -38 1 0 -6 6 -8 14 -5 8 3 17 3 20 -1 12 -11 48 -13 40 -1 -5 8 -1 8
14 0 12 -6 19 -19 17 -29 -2 -14 3 -18 25 -17 15 0 26 3 24 7 -3 4 2 5 10 2 9
-3 14 -10 11 -14 -7 -11 22 -6 32 5 4 4 3 5 -3 2 -7 -4 -17 0 -24 8 -11 13
-10 14 5 9 14 -6 16 -4 10 7 -5 8 1 6 13 -4 16 -15 24 -16 39 -7 16 10 16 10
-4 5 -29 -8 -30 6 -2 23 12 8 18 9 15 4 -3 -5 3 -12 15 -15 16 -4 18 -3 9 8
-8 10 -8 15 1 21 7 4 9 3 6 -3 -7 -11 22 -28 31 -18 3 3 0 5 -6 5 -7 0 -12 7
-12 15 0 9 6 12 17 8 12 -5 14 -3 8 7 -5 8 -4 11 3 6 6 -3 13 -2 17 4 4 6 11
8 16 5 5 -4 9 -1 9 5 0 6 4 9 9 6 5 -4 11 -2 13 4 5 15 46 21 54 8 4 -6 2 -8
-4 -4 -6 3 -13 2 -17 -4 -4 -6 -11 -8 -16 -5 -5 4 -9 1 -9 -4 0 -14 17 -14 25
-1 4 6 10 8 15 5 5 -3 11 -1 15 5 4 6 11 8 16 5 5 -4 9 -1 9 5 0 7 -7 10 -15
6 -9 -3 -15 0 -15 8 0 16 15 15 47 -2 19 -11 22 -10 17 3 -3 8 -10 12 -15 9
-5 -3 -9 0 -9 6 0 6 8 10 18 8 9 -2 16 2 15 9 -3 15 30 10 35 -5 2 -7 8 -12
14 -12 6 0 5 7 -3 16 -10 13 -10 17 2 25 8 5 17 9 22 10 4 1 10 2 15 3 4 1 12
5 19 9 15 10 23 -5 18 -33 -2 -12 -1 -19 3 -16 7 7 8 11 11 37 0 5 6 7 11 4 6
-3 10 -1 10 5 0 6 4 9 9 5 5 -3 12 -1 16 5 4 6 11 8 16 4 5 -3 9 -2 8 3 -4 21
2 33 17 33 8 0 13 4 10 9 -10 15 25 6 36 -10 7 -11 9 -9 5 9 -3 12 -1 22 4 22
5 0 9 -5 9 -11 0 -5 5 -7 10 -4 6 4 8 12 4 18 -3 7 1 4 9 -5 8 -10 18 -18 22
-18 4 0 2 7 -5 15 -7 9 -10 19 -6 22 4 4 11 1 16 -7 8 -13 10 -13 10 1 0 12
11 15 50 14 28 -1 53 2 57 8 3 6 1 7 -5 3 -7 -4 -12 -1 -12 6 0 8 -3 9 -8 3
-10 -14 -56 -20 -47 -6 3 6 11 9 16 6 5 -4 9 2 9 12 0 14 2 15 9 5 12 -19 16
-19 39 1 11 10 29 17 39 16 25 -4 63 10 63 23 0 6 -6 6 -15 -2 -10 -9 -15 -9
-15 -1 0 6 5 11 10 11 21 0 26 2 44 18 11 9 16 11 12 5 -4 -7 -3 -13 2 -13 6
0 13 7 16 16 3 8 10 13 15 10 5 -3 14 0 19 7 7 8 30 12 59 11 31 -1 54 4 66
14 19 17 40 24 71 23 22 0 15 9 -11 13 -10 2 -21 -2 -25 -8 -6 -8 -8 -8 -8 1
0 13 17 26 38 29 6 1 12 -2 12 -7 0 -5 4 -9 10 -9 5 0 7 8 4 18 -5 16 -5 16 9
0 8 -10 18 -18 22 -18 4 0 2 7 -5 15 -7 9 -9 19 -5 23 4 4 10 1 12 -5 3 -7 9
-13 14 -13 6 0 9 6 7 13 -3 12 3 17 23 17 8 0 7 -6 -2 -17 -12 -15 -12 -16 1
-8 8 6 18 10 22 10 3 0 10 4 15 9 4 5 4 7 -2 4 -5 -3 -15 0 -22 7 -10 11 -5
13 27 10 40 -3 60 8 39 21 -7 4 -9 3 -5 -4 7 -12 -20 -10 -31 3 -4 4 -3 5 4 1
6 -3 14 -2 17 3 10 16 45 1 39 -17 -4 -10 1 -8 15 6 12 12 27 22 34 22 6 0 9
3 6 6 -4 3 -15 1 -27 -5 -13 -8 -22 -8 -26 -1 -4 6 -3 10 2 9 19 -3 34 2 29 9
-3 5 5 8 17 8 12 -1 21 4 20 9 -1 6 6 11 15 12 9 1 26 3 37 5 12 2 19 -2 17
-10 -1 -8 2 -11 8 -7 6 4 9 13 8 20 -2 8 0 14 5 14 22 2 28 0 22 -10 -4 -6 2
-5 14 3 12 7 21 18 21 25 0 20 20 15 21 -4 0 -15 2 -15 8 2 5 11 6 25 3 30 -3
6 -1 7 3 2 5 -4 19 0 33 9 13 8 25 14 26 12 2 -2 8 -12 14 -23 6 -11 12 -14
12 -7 0 7 4 11 9 8 5 -4 8 5 6 19 -1 14 0 23 3 20 3 -2 11 0 18 6 8 7 14 7 19
-1 10 -17 25 -11 37 15 6 13 14 22 19 20 4 -3 15 2 23 11 22 21 20 6 -1 -20
-14 -16 -14 -18 -2 -8 9 6 20 8 24 4 5 -4 5 -1 1 6 -4 6 -2 12 4 12 6 0 8 5 5
10 -3 6 1 10 10 10 9 0 13 5 10 10 -9 14 8 12 25 -2 12 -11 12 -10 1 4 -7 10
-13 34 -13 55 0 21 -5 44 -10 51 -8 10 -6 11 8 5 15 -5 17 -4 8 8 -6 8 -11 24
-12 37 -1 21 1 22 16 10 15 -11 15 -10 0 8 -19 22 -24 39 -9 29 5 -3 13 0 17
6 4 7 3 9 -3 6 -6 -4 -16 0 -23 8 -11 13 -10 14 6 8 17 -6 17 -5 5 10 -12 15
-12 19 3 30 16 12 16 14 2 26 -17 14 -22 36 -7 26 5 -3 13 0 17 6 4 7 3 9 -3
6 -6 -4 -16 0 -23 8 -11 13 -10 14 6 8 15 -5 17 -4 8 8 -6 8 -11 24 -12 37 -1
21 1 22 16 10 15 -11 15 -10 0 8 -19 22 -24 39 -9 29 5 -3 13 0 17 6 4 7 3 9
-3 6 -6 -4 -16 0 -23 8 -11 13 -10 14 6 9 16 -6 17 -5 7 7 -18 18 -16 29 5 30
13 0 12 2 -5 9 -27 11 -31 22 -5 13 14 -5 15 -3 5 8 -19 20 -16 33 5 18 9 -7
6 -1 -8 14 -21 25 -22 27 -5 21 16 -6 18 -5 8 7 -19 20 -16 33 5 18 16 -13 16
-13 0 7 -10 11 -18 23 -18 27 0 3 8 4 18 1 16 -5 16 -5 0 6 -23 14 -23 31 0
23 11 -4 8 1 -8 15 -21 18 -22 21 -5 15 18 -6 19 -5 5 12 -12 14 -12 19 -2 23
10 3 8 8 -5 18 -16 12 -16 13 7 8 21 -5 22 -4 8 6 -10 6 -18 15 -18 20 0 5 8
7 18 3 11 -4 8 1 -8 15 -21 19 -22 21 -5 16 16 -6 18 -5 8 7 -19 20 -16 33 5
18 16 -13 16 -13 0 7 -10 11 -18 23 -18 27 0 3 8 4 18 1 16 -5 16 -5 0 6 -10
6 -18 15 -18 20 0 5 8 7 18 3 11 -4 8 1 -8 15 -21 18 -22 21 -5 15 18 -6 19
-5 5 12 -12 14 -12 19 -2 23 10 3 8 8 -5 18 -16 12 -16 13 7 8 21 -5 22 -4 8
6 -10 6 -18 15 -18 20 0 5 8 7 18 3 11 -4 8 1 -8 15 -21 19 -22 21 -5 16 16
-6 18 -5 8 7 -19 20 -16 33 5 18 16 -13 16 -13 0 7 -10 11 -18 23 -18 27 0 3
8 4 18 1 16 -5 16 -5 0 6 -10 6 -18 16 -18 22 0 6 7 5 18 -3 9 -7 6 -1 -7 13
-22 25 -22 26 -3 21 11 -2 22 0 26 5 3 5 -2 9 -12 8 -13 -1 -16 5 -14 28 2 15
0 26 -5 23 -6 -4 -10 0 -10 7 0 9 7 12 16 8 13 -4 14 -3 5 9 -6 8 -11 24 -12
37 -1 21 1 22 16 10 15 -11 15 -10 0 8 -19 22 -24 39 -9 29 5 -3 13 0 17 6 4
7 3 9 -3 6 -6 -4 -16 0 -23 8 -11 13 -10 14 6 8 15 -5 17 -4 8 8 -6 8 -11 24
-12 37 -1 21 1 22 16 10 15 -11 15 -10 0 8 -19 22 -24 39 -9 29 5 -3 13 0 17
6 4 7 3 9 -3 6 -6 -4 -16 0 -23 8 -11 13 -10 14 6 8 17 -6 17 -5 5 10 -12 15
-12 19 3 30 16 12 16 14 2 26 -17 14 -22 36 -7 26 5 -3 13 0 17 6 4 7 3 9 -3
6 -6 -4 -16 0 -23 8 -11 13 -10 14 6 9 16 -6 17 -5 7 7 -19 20 -16 33 5 18 9
-7 7 -2 -6 13 -15 16 -20 28 -13 33 6 3 11 13 11 21 0 8 -4 12 -10 9 -13 -8
-13 1 0 25 7 13 7 21 -2 26 -7 4 -8 3 -4 -4 10 -16 -2 -15 -19 2 -8 7 -11 16
-8 20 4 3 -1 6 -11 6 -9 0 -14 5 -11 10 3 6 -1 10 -10 10 -9 0 -13 5 -10 10 4
6 12 7 18 3 7 -4 6 0 -2 10 -15 18 -26 23 -16 7 12 -19 -8 -10 -27 12 -10 12
-16 28 -14 35 3 7 0 15 -6 19 -7 4 -8 3 -4 -4 4 -7 2 -12 -4 -12 -6 0 -16 13
-21 30 -6 16 -14 29 -17 29 -20 -3 -32 2 -27 11 3 6 1 10 -6 10 -7 0 -10 3 -6
6 3 3 -9 20 -26 37 -63 63 -107 119 -100 130 4 6 1 7 -7 2 -10 -6 -12 -4 -7 8
4 11 2 14 -9 10 -9 -3 -14 1 -14 12 0 9 -4 13 -10 10 -5 -3 -10 -1 -10 6 0 6
-15 25 -32 41 -18 17 -28 27 -21 24 6 -4 15 -1 19 5 4 8 3 9 -4 5 -6 -4 -20 2
-31 13 -11 11 -22 17 -24 15 -3 -3 -4 3 -4 13 1 10 -4 17 -11 15 -8 -1 -11 2
-8 7 3 5 -1 12 -10 15 -8 3 -13 10 -10 14 3 5 -8 16 -25 26 -16 9 -27 22 -24
27 7 11 -20 41 -29 32 -3 -4 -6 1 -6 10 0 10 -4 17 -9 17 -5 0 -12 9 -16 20
-3 11 -11 19 -18 17 -6 -1 -11 4 -12 10 0 7 -14 25 -31 41 -17 15 -29 33 -26
40 2 7 -5 12 -18 12 -12 0 -19 4 -16 8 3 5 -4 18 -14 30 -11 12 -20 24 -20 27
0 3 -18 24 -40 45 -23 22 -39 40 -36 40 3 0 -6 11 -19 25 -14 13 -25 29 -25
35 0 5 -6 10 -14 10 -8 0 -17 9 -21 19 -3 11 -13 22 -21 25 -9 3 -12 11 -8 17
4 8 3 9 -4 5 -7 -4 -12 -3 -12 2 0 5 -7 9 -15 9 -8 0 -12 -4 -9 -9z m1029
-1356 c-3 -3 -11 0 -18 7 -9 10 -8 11 6 5 10 -3 15 -9 12 -12z m-3540 -204 c5
4 5 1 1 -6 -6 -9 -1 -11 17 -8 14 2 28 1 32 -2 7 -7 12 -8 40 -11 8 0 15 -5
15 -11 0 -5 -8 -7 -17 -4 -15 5 -15 4 -3 -4 8 -6 19 -8 25 -4 14 9 55 10 50 1
-3 -4 -2 -9 2 -12 5 -2 1 -2 -7 0 -8 2 -11 0 -6 -4 4 -4 19 -8 33 -8 22 -1 23
0 7 12 -10 7 -14 16 -10 20 4 4 12 0 17 -10 6 -9 14 -15 19 -12 5 3 11 1 15
-5 3 -5 11 -10 16 -10 6 0 7 6 3 13 -5 8 -2 8 9 -2 9 -7 17 -11 17 -7 0 4 10
0 23 -8 12 -7 32 -13 44 -12 12 2 20 -1 17 -6 -4 -5 0 -9 7 -7 30 4 49 -2 47
-13 -2 -7 3 -12 10 -10 10 2 10 -2 0 -19 -11 -18 -11 -23 1 -27 11 -3 11 -6 0
-12 -10 -7 -10 -12 0 -23 9 -12 9 -17 0 -23 -8 -4 -9 -3 -5 4 5 8 2 10 -8 6
-13 -5 -12 -9 7 -26 12 -11 15 -18 7 -15 -10 3 -15 -3 -17 -21 -1 -18 1 -21 8
-11 5 9 7 3 4 -16 -2 -17 -4 -34 -4 -38 -1 -5 -5 -5 -11 -2 -16 10 -11 -1 7
-16 14 -12 16 -12 8 0 -6 10 -4 12 5 6 10 -6 9 -11 -4 -21 -11 -8 -13 -14 -6
-19 5 -3 8 -11 4 -16 -3 -5 -1 -16 6 -24 9 -10 8 -19 -1 -37 -7 -13 -12 -27
-11 -31 1 -4 -9 0 -23 9 -20 13 -25 13 -25 3 0 -11 -2 -11 -8 -1 -5 7 -19 15
-32 17 -13 2 -27 10 -31 16 -5 8 -8 8 -13 0 -5 -8 -13 -8 -27 -1 -11 7 -17 16
-12 23 5 9 3 9 -8 0 -13 -10 -23 -9 -52 6 -20 10 -34 14 -30 8 4 -7 0 -8 -13
-3 -10 5 -25 9 -31 9 -7 0 -13 5 -13 10 0 5 -11 7 -25 5 -13 -3 -22 -1 -19 3
5 9 -5 12 -38 12 -10 0 -18 4 -18 8 0 5 -3 8 -7 8 -31 -5 -38 19 -17 53 4 6 3
8 -4 4 -7 -4 -10 1 -9 14 1 11 5 20 9 20 4 0 8 5 8 11 0 5 -4 7 -10 4 -14 -9
-12 8 3 24 10 11 10 13 0 7 -16 -9 -17 10 -3 19 8 5 7 11 -1 21 -9 11 -9 18 1
29 7 9 10 18 6 22 -3 3 -6 0 -6 -7 0 -7 -3 -10 -6 -7 -4 4 -1 14 7 24 8 9 9
14 3 11 -7 -5 -10 15 -10 57 0 35 4 59 7 53 4 -7 6 -15 3 -19 -2 -4 0 -10 4
-13 11 -7 9 35 -3 54 -7 12 -6 13 7 3 8 -7 19 -9 23 -5z m3235 -31 c0 -18 2
-20 11 -7 9 12 10 12 5 -3 -3 -10 -1 -27 4 -37 7 -13 7 -21 -2 -26 -6 -4 -8
-3 -4 4 3 6 2 13 -3 16 -11 7 -9 -13 3 -32 4 -7 2 -20 -6 -29 -7 -9 -8 -14 -2
-10 7 4 14 0 18 -8 3 -8 0 -17 -6 -21 -7 -5 -8 -2 -3 6 5 9 4 11 -4 6 -9 -6
-9 -11 0 -22 9 -11 8 -18 -2 -31 -8 -9 -9 -14 -3 -10 7 4 14 0 18 -8 3 -8 0
-17 -6 -21 -7 -5 -8 -2 -3 6 5 9 4 11 -3 6 -9 -5 -7 -15 6 -34 9 -14 11 -23 5
-19 -13 8 -19 -6 -13 -28 2 -5 4 -22 6 -37 2 -24 -2 -28 -22 -28 -13 0 -24 -6
-25 -12 0 -10 -2 -10 -6 0 -4 10 -10 9 -26 -5 -14 -12 -18 -13 -12 -3 8 13 7
13 -8 1 -9 -7 -17 -10 -17 -5 0 5 -4 4 -8 -2 -4 -6 -18 -14 -32 -18 -19 -6
-21 -5 -10 3 11 8 11 11 2 11 -7 0 -15 -6 -18 -14 -3 -8 -13 -12 -25 -9 -10 3
-19 1 -19 -4 0 -5 -11 -10 -26 -11 -14 -1 -33 -6 -42 -11 -9 -4 -27 -7 -39 -6
-12 1 -20 -2 -17 -7 3 -4 2 -8 -3 -9 -34 -3 -68 -11 -73 -17 -8 -11 -52 -13
-45 -2 3 6 3 10 -2 10 -9 0 -8 74 2 89 3 6 3 11 -2 11 -4 0 -8 14 -8 30 -1 23
3 29 15 25 12 -4 12 -2 -2 8 -15 12 -15 14 0 25 12 8 13 11 3 9 -20 -3 -22 74
-1 91 8 8 10 11 4 8 -7 -3 -14 4 -17 15 -4 15 -2 19 9 15 8 -3 14 -1 14 4 0 6
-4 10 -9 10 -16 0 -19 25 -6 43 11 16 13 16 19 2 4 -11 2 -14 -7 -9 -9 5 -9 4
0 -6 9 -10 15 -10 27 3 20 20 21 33 1 17 -9 -7 -15 -8 -15 -2 0 11 18 20 35
18 6 0 9 -5 7 -9 -1 -5 2 -6 8 -2 5 3 10 0 10 -7 0 -9 3 -9 10 2 5 8 10 20 10
25 0 6 -5 3 -10 -5 -5 -8 -10 -10 -10 -4 0 21 12 23 37 7 21 -14 26 -14 34 -2
5 8 9 10 9 5 0 -5 11 1 25 14 14 13 25 20 25 15 0 -4 10 0 22 11 12 10 18 14
15 7 -4 -6 -3 -14 3 -18 5 -3 10 -2 10 4 0 5 15 11 33 13 20 2 31 8 29 16 -2
10 2 10 17 2 28 -15 41 -12 42 8 1 15 2 16 6 0 3 -11 10 -15 20 -11 12 5 14 3
8 -7 -6 -9 -4 -11 4 -6 7 5 10 14 7 21 -2 7 -2 16 1 19 10 10 23 -5 23 -27z
m-277 -42 c-3 -9 -8 -13 -11 -11 -3 3 -11 1 -18 -5 -9 -7 -14 -6 -20 3 -4 7
-4 10 1 6 4 -4 17 -1 29 7 26 19 27 19 19 0z m-447 -104 c-3 -5 1 -14 8 -20 8
-7 13 -24 11 -39 -2 -15 2 -33 9 -41 6 -8 6 -12 1 -9 -7 5 -10 -33 -9 -115 1
-77 -3 -127 -10 -136 -8 -10 -8 -13 0 -8 7 4 11 -5 12 -23 0 -16 -4 -33 -10
-36 -7 -5 -8 -2 -3 7 5 8 -1 6 -13 -4 -11 -11 -25 -16 -31 -13 -6 4 -18 2 -28
-3 -29 -15 -57 -24 -70 -22 -7 1 -13 -3 -13 -9 0 -6 -5 -8 -10 -5 -6 4 -18 1
-27 -7 -14 -11 -16 -11 -8 2 8 13 6 13 -8 2 -9 -8 -22 -10 -28 -6 -8 5 -9 3
-4 -6 6 -10 4 -12 -8 -7 -9 3 -19 2 -23 -4 -3 -6 -12 -8 -20 -5 -8 3 -14 0
-14 -6 0 -6 -3 -9 -6 -6 -3 4 -20 0 -39 -7 -18 -8 -35 -11 -39 -8 -3 4 -6 0
-6 -8 0 -11 -2 -11 -10 1 -7 11 -10 11 -10 2 0 -7 -4 -10 -10 -7 -5 3 -10 1
-10 -6 0 -7 -3 -10 -6 -6 -3 3 -18 1 -32 -4 -18 -7 -28 -6 -34 3 -6 10 -8 9
-8 -4 0 -11 -5 -15 -14 -12 -8 3 -14 19 -14 39 0 19 -3 38 -7 44 -4 7 1 8 12
4 15 -5 16 -3 6 8 -7 7 -13 17 -13 22 0 4 6 5 13 1 6 -4 4 1 -5 12 -10 12 -14
25 -9 32 4 7 6 24 3 38 -3 15 3 33 14 47 16 18 16 19 2 8 -15 -11 -18 -11 -19
0 -3 27 4 53 16 61 6 5 6 8 -2 8 -8 0 -11 20 -10 59 2 49 4 57 16 48 23 -20
41 -16 47 10 8 30 24 12 17 -21 -3 -19 -2 -18 7 3 7 15 15 21 26 17 9 -3 12
-2 9 5 -4 6 -13 8 -19 6 -7 -3 -13 0 -13 7 0 16 42 13 63 -5 16 -13 16 -12 5
9 -6 12 -9 22 -6 22 12 0 20 -5 18 -12 -2 -4 12 0 30 10 36 20 69 18 60 -4 -3
-8 0 -14 6 -14 6 0 10 5 9 12 -2 7 2 12 9 13 6 0 15 3 18 7 4 4 17 3 29 -3 20
-10 20 -9 2 5 -10 9 -23 13 -29 9 -6 -3 -7 -1 -3 5 4 6 14 8 23 5 12 -5 14 -3
9 8 -4 8 -1 6 7 -3 16 -20 33 -23 42 -8 3 6 -1 7 -9 4 -9 -3 -16 -1 -16 5 0 6
3 10 8 10 19 -3 33 2 27 11 -3 6 1 7 9 4 9 -3 16 -10 16 -16 0 -5 -4 -7 -8 -4
-4 2 -9 -5 -9 -16 -2 -19 -1 -19 11 -3 8 11 18 15 25 10 10 -6 10 -3 0 16 -12
23 -11 23 6 9 17 -13 18 -13 13 0 -4 11 2 15 18 16 25 2 32 -10 12 -22 -7 -5
-8 -3 -3 6 6 9 4 11 -4 5 -10 -5 -10 -10 -1 -19 8 -8 13 -7 20 4 8 12 11 12
28 -3 15 -14 19 -14 19 -2 0 8 -5 11 -10 8 -6 -3 -7 -1 -3 6 4 6 4 11 -1 10
-20 -3 -25 2 -13 16 13 16 25 21 16 6z m-1683 -36 c15 1 30 -2 33 -7 3 -4 10
-6 15 -3 5 3 6 -1 3 -9 -3 -9 -10 -16 -15 -16 -5 0 -9 -5 -9 -12 0 -6 10 -2
23 10 26 24 37 28 37 11 0 -5 -6 -7 -12 -3 -8 5 -8 1 2 -12 22 -29 24 -30 16
-10 -5 15 -2 17 14 13 11 -3 18 -1 15 3 -3 5 9 5 26 0 18 -5 36 -7 41 -4 5 3
12 -3 15 -15 3 -11 9 -18 14 -15 5 3 7 9 5 13 -3 4 1 8 9 8 15 0 12 -10 -14
-42 -12 -16 -10 -15 10 3 22 19 83 43 66 25 -3 -3 1 -12 9 -20 8 -8 12 -18 10
-22 -3 -4 11 -7 31 -8 21 0 30 2 23 7 -7 5 -19 6 -26 3 -17 -6 -29 16 -15 30
9 9 10 7 5 -8 -7 -17 -6 -18 8 -7 11 9 17 10 20 2 2 -7 21 -13 43 -15 22 -2
42 -4 45 -5 3 -2 8 -2 12 -1 4 0 5 -6 2 -14 -4 -9 1 -18 11 -21 13 -5 14 -9 3
-15 -10 -7 -11 -9 0 -9 7 0 10 -5 7 -10 -4 -6 -10 -8 -15 -5 -5 3 -11 1 -15
-4 -3 -6 3 -8 15 -6 11 2 20 0 20 -6 0 -5 -6 -9 -12 -10 -10 0 -10 -2 0 -6 18
-7 15 -43 -5 -67 -16 -18 -16 -19 -1 -8 15 12 17 10 16 -20 0 -18 -8 -42 -17
-53 -15 -18 -15 -19 1 -7 15 12 17 10 16 -20 0 -18 -8 -42 -17 -53 -15 -19
-15 -19 2 -5 17 13 19 12 15 -10 -1 -14 -7 -28 -13 -32 -6 -5 -5 -8 2 -8 7 0
12 -11 11 -25 -2 -25 -18 -36 -18 -12 0 8 -3 8 -8 2 -8 -12 -11 -12 -59 0 -18
4 -33 12 -33 17 0 6 -8 7 -17 4 -9 -4 -20 -1 -25 6 -6 11 -8 10 -8 0 0 -10 -4
-10 -15 2 -8 8 -24 13 -35 11 -11 -2 -20 1 -20 6 0 6 -4 7 -10 4 -5 -3 -10 2
-11 12 0 10 -3 13 -6 6 -2 -7 -11 -13 -19 -13 -9 0 -13 4 -10 8 4 7 -3 9 -59
13 -14 1 -28 5 -31 10 -3 5 -16 9 -30 9 -13 0 -24 4 -24 8 0 5 -6 9 -12 10
-42 3 -58 7 -58 14 0 4 -6 8 -14 8 -8 0 -16 7 -19 14 -4 11 -1 13 10 9 13 -5
13 -2 -2 21 -17 26 -17 27 1 42 10 9 14 13 7 10 -14 -8 -20 9 -15 45 2 16 9
26 14 23 6 -4 2 5 -7 20 -10 14 -13 26 -7 26 5 0 12 11 14 25 4 18 2 23 -6 16
-8 -7 -12 -4 -12 10 0 10 4 19 9 19 4 0 5 5 2 10 -4 6 -1 18 7 27 7 9 8 14 2
10 -7 -4 -14 0 -18 8 -3 8 -1 17 5 21 6 4 5 12 -3 22 -12 15 -11 16 5 3 20
-15 23 -2 5 19 -11 12 -10 12 2 4 8 -6 28 -10 43 -9z m1440 -29 c6 -15 -17
-16 -30 -1 -4 4 -2 5 5 1 6 -4 12 -2 12 3 0 15 7 14 13 -3z m-233 -67 c0 -13
-28 -18 -33 -6 -3 7 3 13 14 13 11 0 19 -3 19 -7z m-2048 -333 c7 5 8 2 3 -6
-6 -9 -1 -10 16 -6 22 7 23 6 6 -7 -17 -14 -16 -15 7 -13 13 0 22 4 20 8 -2 4
1 10 7 14 8 4 9 3 5 -4 -4 -6 2 -19 13 -29 11 -9 17 -21 14 -27 -4 -6 3 -3 15
8 12 10 19 24 15 30 -4 6 2 4 13 -5 10 -9 25 -14 33 -11 9 3 11 0 6 -8 -5 -8
0 -11 16 -10 13 1 29 1 34 0 6 -2 15 -4 20 -4 6 -1 20 -7 33 -14 12 -7 22 -10
22 -7 0 4 6 3 13 -2 13 -8 18 -10 42 -12 8 0 15 -5 15 -11 0 -12 -22 -9 -32 5
-4 5 -6 0 -6 -11 2 -23 11 -25 45 -6 16 9 24 9 29 0 4 -6 3 -9 -2 -6 -5 3 -15
-1 -23 -9 -12 -13 -11 -14 6 -9 14 4 23 1 26 -8 4 -11 1 -13 -11 -9 -9 3 -14
3 -10 -2 4 -4 2 -15 -5 -23 -10 -13 -9 -14 8 -4 18 9 21 7 21 -9 0 -13 -5 -18
-15 -14 -11 4 -11 3 -2 -9 6 -8 11 -29 9 -48 -1 -19 2 -40 7 -48 6 -10 4 -12
-9 -7 -15 6 -15 5 -3 -13 14 -20 12 -74 -2 -65 -4 2 -8 -2 -8 -9 0 -8 6 -12
14 -9 19 7 16 -7 -4 -24 -10 -8 -13 -12 -6 -9 6 4 14 2 18 -4 3 -5 0 -10 -7
-10 -9 0 -9 -3 2 -10 13 -9 13 -10 0 -10 -13 0 -13 -2 0 -11 13 -9 13 -10 -1
-6 -9 3 -22 0 -28 -6 -8 -8 -11 -8 -11 1 0 7 -7 12 -15 12 -9 0 -18 7 -21 15
-5 12 -10 13 -20 4 -12 -10 -18 -6 -16 12 1 3 -9 5 -21 4 -12 -1 -30 2 -40 7
-10 5 -28 11 -40 14 -12 2 -23 8 -25 14 -2 6 -8 8 -13 4 -5 -3 -15 -2 -21 3
-7 4 -15 8 -18 9 -3 0 -18 6 -33 12 -15 7 -31 11 -35 11 -23 -4 -34 3 -28 17
5 14 4 15 -8 5 -11 -10 -19 -9 -35 1 -12 7 -21 16 -21 20 0 4 -8 5 -17 2 -14
-5 -15 -4 -4 4 8 6 11 17 8 26 -4 9 -2 16 4 16 6 0 7 6 2 13 -13 22 -9 76 7
83 13 5 13 7 0 17 -16 13 -23 87 -8 87 5 0 4 9 -2 20 -7 14 -7 20 0 20 5 0 10
5 10 11 0 5 -4 8 -8 5 -5 -3 -9 1 -9 8 0 7 11 12 28 11 19 -1 26 2 22 12 -4
10 -9 11 -19 2 -13 -11 -17 -8 -11 9 1 4 5 6 10 5 4 -2 7 3 8 10 0 9 2 9 6 -1
2 -6 10 -9 15 -6z m3258 -6 c8 -5 11 -10 5 -10 -5 0 -3 -5 5 -11 13 -9 12 -10
-2 -5 -10 3 -18 1 -18 -5 0 -6 -5 -7 -11 -3 -8 4 -7 9 2 15 7 4 10 11 6 16 -5
4 -12 1 -17 -7 -6 -8 -10 -10 -10 -4 0 23 17 29 40 14z m-63 -12 c4 10 10 7
21 -10 9 -13 16 -26 15 -29 -1 -3 4 -6 12 -6 8 0 12 4 9 9 -3 4 -1 8 5 8 6 0
9 -16 7 -37 -2 -21 1 -46 6 -57 7 -12 7 -16 0 -12 -6 3 -13 2 -17 -4 -3 -5 -1
-10 6 -10 8 0 7 -5 -2 -17 -12 -15 -12 -16 4 -10 14 5 16 3 9 -11 -9 -16 -6
-71 3 -81 2 -2 -3 -18 -12 -35 -15 -30 -15 -30 2 -16 17 14 17 14 7 -6 -6 -12
-8 -25 -4 -29 4 -5 1 -4 -7 0 -11 6 -13 4 -8 -8 4 -12 2 -14 -10 -10 -11 4
-14 2 -9 -5 4 -7 -1 -10 -14 -7 -11 2 -22 0 -25 -5 -3 -5 -14 -7 -25 -5 -12 2
-18 0 -15 -6 4 -5 1 -10 -4 -10 -12 -2 -26 -5 -38 -9 -5 -1 -11 -2 -15 -1 -5
0 -8 -4 -8 -11 0 -6 -3 -9 -6 -6 -3 4 -20 0 -39 -7 -18 -8 -36 -11 -39 -7 -4
3 -10 2 -14 -3 -12 -17 -52 -36 -62 -30 -6 4 -10 1 -10 -5 0 -6 -5 -8 -10 -5
-6 4 -16 2 -23 -3 -10 -8 -61 -24 -77 -24 -3 0 -10 -4 -17 -9 -7 -7 -14 -6
-19 2 -4 7 -3 9 3 6 6 -4 14 0 17 8 3 9 -1 18 -9 21 -12 5 -10 10 8 25 12 11
18 19 12 18 -22 -3 -35 1 -35 12 0 5 3 8 8 6 4 -3 8 6 8 19 1 15 -2 21 -10 17
-6 -4 -5 1 3 10 7 9 9 17 4 17 -10 0 -10 60 1 78 4 7 2 12 -4 12 -6 0 -9 4 -5
10 3 5 13 7 23 4 9 -3 6 2 -8 10 -14 9 -19 15 -10 16 10 0 11 3 3 11 -12 12
-6 42 6 35 4 -3 7 4 7 14 0 10 -6 16 -13 13 -7 -3 -13 -1 -13 5 0 5 14 12 30
16 17 3 30 11 30 18 0 9 -3 9 -12 0 -15 -15 -28 -15 -28 -1 0 5 5 7 12 3 8 -5
9 -2 5 10 -5 13 -3 15 10 8 9 -5 25 -7 36 -4 11 3 18 1 14 -4 -3 -6 5 -10 18
-10 19 0 22 3 13 13 -5 7 -13 11 -17 9 -4 -3 -13 0 -21 5 -11 7 -8 8 10 5 14
-2 34 -7 45 -11 l20 -8 -20 16 -20 16 20 -4 c11 -2 24 -4 28 -4 5 -1 6 -5 3
-9 -3 -5 1 -9 9 -9 13 0 12 4 -2 19 -15 17 -15 18 0 18 10 0 17 -4 17 -10 0
-18 18 -11 53 20 19 16 37 27 40 23 4 -3 13 0 21 6 13 11 19 8 38 -12 l23 -25
1 25 c2 17 -2 23 -12 19 -7 -3 -16 -2 -18 3 -3 4 1 8 9 9 8 1 22 3 30 4 8 1
15 6 15 12 0 6 5 4 11 -4 8 -12 12 -12 16 -2z m-3087 -24 c0 -14 -3 -14 -15
-4 -8 7 -15 14 -15 16 0 2 7 4 15 4 8 0 15 -7 15 -16z m2904 -28 c-8 -20 -31
-27 -31 -10 0 7 4 11 8 8 4 -2 10 0 14 6 9 15 15 12 9 -4z m-2010 -114 c3 -5
-1 -9 -9 -9 -8 0 -12 4 -9 9 3 4 7 8 9 8 2 0 6 -4 9 -8z m1535 -48 c-7 -8 -6
-13 3 -16 10 -4 10 -8 -1 -21 -11 -14 -11 -17 0 -17 11 0 11 -2 -1 -10 -12 -8
-12 -10 -1 -10 11 0 11 -3 0 -17 -8 -9 -9 -14 -3 -10 7 4 15 0 18 -9 3 -8 2
-13 -3 -9 -11 6 -9 -44 2 -62 4 -6 3 -14 -2 -17 -5 -3 -7 -19 -6 -36 1 -17 -2
-30 -9 -30 -8 0 -8 -3 0 -8 13 -9 13 -132 -1 -133 -5 -1 -13 -1 -17 0 -5 0 -8
-4 -8 -11 0 -6 -3 -9 -6 -5 -3 3 -22 -3 -41 -14 -19 -11 -31 -14 -28 -8 5 7
-1 6 -16 -2 -13 -7 -28 -13 -34 -14 -5 0 -20 -6 -31 -12 -12 -7 -24 -9 -28 -5
-4 3 -11 0 -15 -7 -5 -7 -20 -14 -35 -14 -14 -1 -26 -6 -26 -10 0 -5 -4 -5
-10 -2 -5 3 -10 1 -10 -5 0 -6 -4 -9 -8 -6 -5 3 -21 -2 -36 -9 -16 -8 -32 -12
-37 -9 -5 3 -9 1 -9 -3 0 -13 -87 -36 -101 -27 -7 4 -9 3 -6 -3 4 -6 0 -14 -9
-17 -24 -9 -46 -7 -39 4 3 6 0 10 -7 10 -10 0 -9 3 2 9 8 6 18 7 24 4 5 -3 6
-1 2 6 -4 6 -11 9 -16 6 -4 -3 -10 4 -13 15 -3 11 -1 20 3 20 12 0 7 53 -5 62
-5 4 -1 8 10 8 17 0 17 2 5 10 -8 5 -10 10 -5 10 6 0 3 5 -5 10 -10 6 -11 10
-3 10 9 0 10 7 4 23 -10 27 -3 50 12 40 7 -4 6 1 -2 10 -7 9 -10 17 -7 17 4 0
3 8 -3 18 -7 13 -5 20 12 30 13 8 15 11 5 8 -13 -4 -17 0 -15 14 2 11 6 23 10
26 4 4 2 13 -4 21 -8 9 -8 13 -1 13 6 0 9 6 6 13 -3 8 3 20 12 28 12 9 15 10
10 2 -4 -8 -2 -13 5 -13 10 0 10 -3 1 -12 -7 -7 -12 -17 -12 -22 0 -6 7 0 16
12 15 22 41 22 28 0 -4 -7 -2 -8 5 -4 9 6 9 11 0 22 -6 7 -16 11 -22 7 -6 -3
-7 -1 -3 6 4 6 12 9 17 6 5 -4 9 -1 9 4 0 6 4 11 9 11 5 0 8 -7 7 -16 0 -9 6
-19 14 -21 13 -4 13 -3 0 7 -11 9 -12 13 -2 17 6 2 9 10 5 16 -4 6 0 8 10 4
10 -4 17 -1 17 6 0 7 4 6 10 -3 7 -11 4 -17 -8 -22 -14 -7 -14 -7 3 -5 12 2
19 9 17 19 -1 9 3 20 9 24 8 4 9 3 5 -4 -4 -7 -2 -12 3 -12 6 0 11 6 11 13 0
8 3 9 8 1 9 -13 54 -26 46 -13 -3 5 -12 9 -20 9 -8 0 -14 5 -14 10 0 13 6 13
33 -2 19 -10 20 -9 10 3 -10 12 -8 15 13 17 13 1 36 9 50 18 13 9 27 14 31 10
3 -3 12 -1 19 4 19 16 56 21 49 7 -4 -7 0 -4 8 6 13 16 15 16 21 2 4 -11 2
-14 -6 -9 -7 4 -8 3 -4 -5 8 -12 29 -5 23 7 -2 4 5 16 16 26 17 16 19 16 14 3
-3 -9 -1 -19 5 -23 7 -4 8 -3 4 4 -4 7 -2 12 3 12 6 0 11 -5 11 -12 0 -6 3 -8
6 -5 4 4 1 13 -6 22 -8 10 -9 15 -2 15 6 0 16 -9 22 -19 8 -16 6 -22 -7 -30
-10 -6 -13 -11 -7 -11 28 0 42 46 19 62 -5 4 0 6 12 5 16 -1 19 -5 12 -13z
m-1309 -8 c0 -3 -4 -8 -10 -11 -5 -3 -10 -1 -10 4 0 6 5 11 10 11 6 0 10 -2
10 -4z m2325 -194 c-3 -3 -11 0 -18 7 -9 10 -8 11 6 5 10 -3 15 -9 12 -12z
m-125 -342 c0 -5 -4 -10 -10 -10 -5 0 -10 5 -10 10 0 6 5 10 10 10 6 0 10 -4
10 -10z m-3505 -42 c5 4 5 1 1 -6 -6 -10 -11 -10 -22 -1 -8 6 -14 17 -14 23 0
6 7 3 14 -6 7 -10 17 -14 21 -10z m3430 13 c3 -5 1 -12 -5 -16 -5 -3 -10 1
-10 9 0 18 6 21 15 7z m-135 -57 c0 -8 -19 -13 -24 -6 -3 5 1 9 9 9 8 0 15 -2
15 -3z m-475 -214 c-9 -10 -25 -18 -36 -17 -21 1 -25 12 -9 22 6 3 10 1 10 -4
0 -6 5 -11 11 -11 5 0 7 5 3 12 -4 7 -3 8 4 4 7 -4 12 -1 12 9 0 9 5 13 11 10
7 -5 5 -13 -6 -25z m-255 -100 c0 -5 -2 -10 -4 -10 -3 0 -8 5 -11 10 -3 6 -1
10 4 10 6 0 11 -4 11 -10z m-331 -146 c-6 -8 -14 -12 -17 -10 -2 3 -13 1 -23
-5 -12 -6 -19 -6 -19 0 0 5 14 12 30 16 18 4 27 11 24 17 -4 7 -2 8 5 4 9 -6
9 -11 0 -22z m-574 -203 c3 -5 1 -12 -5 -16 -5 -3 -10 1 -10 9 0 18 6 21 15 7z"/>
<path d="M926 2667 c3 -10 9 -15 12 -12 3 3 0 11 -7 18 -10 9 -11 8 -5 -6z"/>
<path d="M983 2656 c14 -31 23 -33 23 -6 0 10 -2 17 -5 15 -2 -3 -10 0 -17 6
-10 8 -11 6 -1 -15z"/>
<path d="M950 2650 c0 -5 5 -10 10 -10 6 0 10 5 10 10 0 6 -4 10 -10 10 -5 0
-10 -4 -10 -10z"/>
<path d="M1057 2633 c3 -9 0 -11 -10 -7 -8 3 -17 1 -21 -4 -3 -5 4 -8 16 -7
23 2 46 32 24 32 -8 0 -12 -6 -9 -14z"/>
<path d="M913 2623 c4 -3 1 -13 -6 -22 -11 -14 -10 -14 5 -2 16 12 16 31 1 31
-4 0 -3 -3 0 -7z"/>
<path d="M1150 2620 c0 -5 5 -10 11 -10 5 0 7 5 4 10 -3 6 -8 10 -11 10 -2 0
-4 -4 -4 -10z"/>
<path d="M1180 2605 c-7 -9 -8 -15 -2 -15 5 0 12 7 16 15 3 8 4 15 2 15 -2 0
-9 -7 -16 -15z"/>
<path d="M1216 2607 c3 -10 9 -15 12 -12 3 3 0 11 -7 18 -10 9 -11 8 -5 -6z"/>
<path d="M1240 2591 c0 -6 4 -13 10 -16 6 -3 7 1 4 9 -7 18 -14 21 -14 7z"/>
<path d="M1313 2575 c0 -8 4 -12 8 -9 4 2 9 -2 12 -8 2 -7 7 -10 11 -7 3 3 -2
13 -12 22 -15 14 -19 15 -19 2z"/>
<path d="M1278 2573 c7 -3 16 -2 19 1 4 3 -2 6 -13 5 -11 0 -14 -3 -6 -6z"/>
<path d="M1340 2240 c0 -5 5 -10 10 -10 6 0 10 5 10 10 0 6 -4 10 -10 10 -5 0
-10 -4 -10 -10z"/>
<path d="M4040 2645 c-7 -9 -8 -15 -2 -15 5 0 12 7 16 15 3 8 4 15 2 15 -2 0
-9 -7 -16 -15z"/>
<path d="M4095 2640 c3 -5 8 -10 11 -10 2 0 4 5 4 10 0 6 -5 10 -11 10 -5 0
-7 -4 -4 -10z"/>
<path d="M3945 2630 c-4 -6 -11 -7 -17 -4 -6 4 -6 -2 1 -15 13 -24 23 -28 15
-6 -4 10 -1 14 7 12 8 -2 11 -2 6 0 -4 3 -5 9 -1 14 3 5 3 9 0 9 -3 0 -8 -5
-11 -10z"/>
<path d="M3987 2626 c-4 -10 1 -12 14 -9 23 6 24 9 5 16 -8 3 -17 0 -19 -7z"/>
<path d="M3830 2580 c0 -5 5 -10 11 -10 5 0 7 5 4 10 -3 6 -8 10 -11 10 -2 0
-4 -4 -4 -10z"/>
<path d="M3715 2440 c3 -5 8 -10 11 -10 2 0 4 5 4 10 0 6 -5 10 -11 10 -5 0
-7 -4 -4 -10z"/>
<path d="M3136 2432 c-6 -10 -2 -39 7 -48 3 -4 4 6 1 21 -3 19 -1 24 7 19 8
-4 9 -3 5 4 -8 14 -13 15 -20 4z"/>
<path d="M3435 2411 c-3 -5 -2 -12 3 -15 5 -3 9 1 9 9 0 17 -3 19 -12 6z"/>
<path d="M3095 2399 c-11 -16 -1 -19 13 -3 7 8 8 14 3 14 -5 0 -13 -5 -16 -11z"/>
<path d="M1753 2465 c-10 -11 -9 -13 6 -12 11 1 17 7 14 14 -6 16 -5 16 -20
-2z"/>
<path d="M1716 2442 c-3 -5 1 -9 9 -9 8 0 12 4 9 9 -3 4 -7 8 -9 8 -2 0 -6 -4
-9 -8z"/>
<path d="M1939 2423 c-8 -9 -9 -14 -2 -10 6 4 13 1 16 -5 3 -7 4 -3 4 10 -1
26 -1 26 -18 5z"/>
<path d="M1870 2420 c0 -5 7 -7 15 -4 8 4 15 8 15 10 0 2 -7 4 -15 4 -8 0 -15
-4 -15 -10z"/>
<path d="M2019 2403 c-7 -10 -9 -15 -5 -11 5 4 15 0 23 -10 12 -16 13 -16 6 2
-5 15 -3 17 8 11 12 -8 12 -6 0 8 -17 21 -16 21 -32 0z"/>
<path d="M2155 2370 c-4 -6 -2 -17 4 -23 9 -9 10 -7 5 8 -7 18 -6 18 9 6 9 -7
17 -10 17 -5 0 4 7 -1 15 -12 13 -18 14 -18 8 4 -3 13 -11 21 -18 18 -7 -2
-17 0 -23 6 -6 6 -12 6 -17 -2z"/>
<path d="M893 1987 c-1 -11 -1 -18 0 -16 2 2 8 11 15 20 9 12 9 16 -1 16 -7 0
-14 -9 -14 -20z"/>
<path d="M1050 2001 c0 -5 7 -12 16 -15 8 -3 12 -11 8 -17 -5 -8 -3 -9 5 -5 9
6 8 13 -5 27 -19 21 -24 23 -24 10z"/>
<path d="M1139 1975 c8 -12 25 -21 42 -21 27 -2 28 0 12 11 -10 7 -21 11 -26
8 -4 -2 -15 1 -24 9 -15 12 -15 11 -4 -7z"/>
<path d="M1110 1971 c0 -5 7 -12 16 -15 14 -5 15 -4 4 9 -14 17 -20 19 -20 6z"/>
<path d="M879 1933 c-13 -16 -12 -17 4 -4 9 7 17 15 17 17 0 8 -8 3 -21 -13z"/>
<path d="M1295 1560 c3 -5 8 -10 11 -10 2 0 4 5 4 10 0 6 -5 10 -11 10 -5 0
-7 -4 -4 -10z"/>
<path d="M4076 2018 c3 -5 10 -6 15 -3 13 9 11 12 -6 12 -8 0 -12 -4 -9 -9z"/>
<path d="M4111 2011 c-8 -5 -9 -11 -3 -15 5 -3 12 1 16 9 6 17 6 18 -13 6z"/>
<path d="M4006 1994 c-5 -12 -10 -14 -20 -5 -16 13 -27 4 -19 -17 4 -9 2 -13
-4 -9 -5 3 -10 -1 -10 -10 0 -12 5 -11 19 7 10 12 18 19 18 15 0 -4 6 -2 13 4
8 6 17 8 21 4 4 -4 4 0 0 10 -8 21 -10 21 -18 1z"/>
<path d="M4170 1759 c0 -5 5 -7 10 -4 6 3 10 8 10 11 0 2 -4 4 -10 4 -5 0 -10
-5 -10 -11z"/>
<path d="M3275 1777 c-14 -11 -15 -16 -5 -22 9 -5 11 -4 6 3 -4 7 -1 12 8 12
9 0 16 5 16 10 0 13 -3 13 -25 -3z"/>
<path d="M3212 1754 c-23 -16 -29 -34 -12 -34 6 0 9 6 8 13 -2 8 8 11 27 10
17 -1 22 1 11 4 -15 4 -16 7 -5 14 8 5 9 9 4 9 -6 0 -21 -7 -33 -16z"/>
<path d="M3310 1766 c0 -2 7 -7 16 -10 8 -3 12 -2 9 4 -6 10 -25 14 -25 6z"/>
<path d="M3435 1520 c3 -5 8 -10 11 -10 2 0 4 5 4 10 0 6 -5 10 -11 10 -5 0
-7 -4 -4 -10z"/>
<path d="M2910 1459 c0 -5 5 -7 10 -4 6 3 10 8 10 11 0 2 -4 4 -10 4 -5 0 -10
-5 -10 -11z"/>
<path d="M3430 1440 c0 -5 5 -10 11 -10 5 0 7 5 4 10 -3 6 -8 10 -11 10 -2 0
-4 -4 -4 -10z"/>
<path d="M3694 4075 c1 -8 6 -18 11 -22 4 -4 5 -3 2 4 -4 6 -2 13 5 15 8 3 6
6 -4 10 -10 4 -15 2 -14 -7z"/>
<path d="M3176 3927 c3 -10 9 -15 12 -12 3 3 0 11 -7 18 -10 9 -11 8 -5 -6z"/>
<path d="M3826 3925 c-4 -11 -2 -14 6 -9 7 5 9 2 6 -8 -4 -8 0 -15 7 -15 11 0
11 5 3 21 -15 29 -15 29 -22 11z"/>
<path d="M3080 3780 c-6 -11 -8 -20 -6 -20 3 0 10 9 16 20 6 11 8 20 6 20 -3
0 -10 -9 -16 -20z"/>
<path d="M3130 3780 c0 -5 5 -10 11 -10 5 0 7 5 4 10 -3 6 -8 10 -11 10 -2 0
-4 -4 -4 -10z"/>
<path d="M3957 3761 c-4 -17 -3 -21 5 -13 5 5 8 16 6 23 -3 8 -7 3 -11 -10z"/>
<path d="M3075 3739 c-3 -4 2 -6 10 -5 21 3 28 13 10 13 -9 0 -18 -4 -20 -8z"/>
<path d="M3055 3700 c-3 -5 -1 -10 4 -10 6 0 11 5 11 10 0 6 -2 10 -4 10 -3 0
-8 -4 -11 -10z"/>
<path d="M3995 3701 c-3 -5 -2 -12 3 -15 5 -3 9 1 9 9 0 17 -3 19 -12 6z"/>
<path d="M4055 3620 c3 -5 8 -10 11 -10 2 0 4 5 4 10 0 6 -5 10 -11 10 -5 0
-7 -4 -4 -10z"/>
<path d="M4095 3580 c3 -5 8 -10 11 -10 2 0 4 5 4 10 0 6 -5 10 -11 10 -5 0
-7 -4 -4 -10z"/>
<path d="M4150 3563 c0 -5 13 -17 28 -27 l27 -19 -24 26 c-26 28 -31 32 -31
20z"/>
<path d="M4153 3527 c0 -8 6 -14 14 -14 9 0 10 4 2 14 -6 7 -12 13 -14 13 -1
0 -2 -6 -2 -13z"/>
<path d="M2904 3488 c-4 -7 -4 -10 1 -6 4 4 15 2 24 -5 14 -11 14 -10 2 6 -16
20 -18 21 -27 5z"/>
<path d="M2906 3438 c3 -5 10 -6 15 -3 13 9 11 12 -6 12 -8 0 -12 -4 -9 -9z"/>
<path d="M4250 3440 c0 -5 5 -10 11 -10 5 0 7 5 4 10 -3 6 -8 10 -11 10 -2 0
-4 -4 -4 -10z"/>
<path d="M4295 3389 c-4 -6 -5 -12 -2 -15 2 -3 7 2 10 11 7 17 1 20 -8 4z"/>
<path d="M4333 3336 c0 -8 6 -12 14 -9 7 3 10 9 7 14 -8 14 -21 11 -21 -5z"/>
<path d="M2807 3319 c7 -7 15 -10 18 -7 3 3 -2 9 -12 12 -14 6 -15 5 -6 -5z"/>
<path d="M4340 3306 c0 -2 8 -10 18 -17 15 -13 16 -12 3 4 -13 16 -21 21 -21
13z"/>
<path d="M2776 3281 c-3 -5 2 -15 12 -22 15 -12 16 -12 5 2 -7 9 -10 19 -6 22
3 4 4 7 0 7 -3 0 -8 -4 -11 -9z"/>
<path d="M4380 3280 c0 -5 5 -10 11 -10 5 0 7 5 4 10 -3 6 -8 10 -11 10 -2 0
-4 -4 -4 -10z"/>
<path d="M4460 3182 c0 -5 7 -9 15 -9 8 0 12 4 9 9 -3 4 -9 8 -15 8 -5 0 -9
-4 -9 -8z"/>
<path d="M460 3120 c8 -5 20 -10 25 -10 6 0 3 5 -5 10 -8 5 -19 10 -25 10 -5
0 -3 -5 5 -10z"/>
<path d="M2690 3099 c0 -5 5 -7 10 -4 6 3 10 8 10 11 0 2 -4 4 -10 4 -5 0 -10
-5 -10 -11z"/>
<path d="M4660 3080 c0 -5 5 -10 11 -10 5 0 7 5 4 10 -3 6 -8 10 -11 10 -2 0
-4 -4 -4 -10z"/>
<path d="M4756 3073 c-6 -14 -5 -15 5 -6 7 7 10 15 7 18 -3 3 -9 -2 -12 -12z"/>
<path d="M4819 3088 c-5 -18 -6 -38 -1 -34 7 8 12 36 6 36 -2 0 -4 -1 -5 -2z"/>
<path d="M749 3068 c15 -21 31 -23 31 -6 0 6 -3 8 -7 5 -3 -4 -13 -1 -22 6
-14 11 -14 10 -2 -5z"/>
<path d="M730 3042 c0 -5 7 -9 15 -9 8 0 12 4 9 9 -3 4 -9 8 -15 8 -5 0 -9 -4
-9 -8z"/>
<path d="M790 3046 c0 -2 7 -6 15 -10 8 -3 15 -1 15 4 0 6 -7 10 -15 10 -8 0
-15 -2 -15 -4z"/>
<path d="M4460 3036 c0 -2 7 -7 16 -10 8 -3 12 -2 9 4 -6 10 -25 14 -25 6z"/>
<path d="M1086 2991 c8 -9 43 -11 48 -3 2 4 -9 7 -25 7 -15 1 -26 -1 -23 -4z"/>
<path d="M1075 2961 c3 -2 21 -5 40 -6 18 0 32 2 29 5 -3 3 -21 5 -40 6 -19 0
-32 -2 -29 -5z"/>
<path d="M1217 2959 c7 -7 15 -10 18 -7 3 3 -2 9 -12 12 -14 6 -15 5 -6 -5z"/>
<path d="M1273 2950 c2 -8 17 -16 33 -17 20 -2 25 0 14 7 -8 5 -18 6 -23 3 -5
-3 -14 1 -19 8 -8 12 -9 11 -5 -1z"/>
<path d="M1340 2931 c-7 -15 -7 -22 2 -27 7 -4 10 -4 6 1 -4 4 -3 16 3 26 5
11 7 19 5 19 -3 0 -10 -9 -16 -19z"/>
<path d="M1246 2922 c-2 -4 4 -8 14 -8 10 0 16 4 14 8 -3 4 -9 8 -14 8 -5 0
-11 -4 -14 -8z"/>
<path d="M1473 2897 c7 -11 20 -23 28 -25 8 -2 6 2 -3 8 -10 6 -18 16 -18 22
0 7 5 6 15 -2 8 -7 15 -9 15 -4 0 5 4 3 9 -4 7 -11 9 -11 14 1 4 10 0 14 -11
12 -9 -1 -21 0 -27 4 -5 3 -16 6 -23 7 -11 2 -11 -2 1 -19z"/>
<path d="M1550 2889 c0 -5 5 -7 10 -4 6 3 10 8 10 11 0 2 -4 4 -10 4 -5 0 -10
-5 -10 -11z"/>
<path d="M1580 2879 c-11 -19 -10 -20 10 -9 11 6 18 15 15 21 -9 13 -13 11
-25 -12z"/>
<path d="M2550 2889 c0 -5 5 -7 10 -4 6 3 10 8 10 11 0 2 -4 4 -10 4 -5 0 -10
-5 -10 -11z"/>
<path d="M1615 2870 c-3 -5 -1 -10 4 -10 6 0 11 5 11 10 0 6 -2 10 -4 10 -3 0
-8 -4 -11 -10z"/>
<path d="M1695 2860 c3 -5 11 -10 16 -10 6 0 7 5 4 10 -3 6 -11 10 -16 10 -6
0 -7 -4 -4 -10z"/>
<path d="M2535 2860 c3 -5 8 -10 11 -10 2 0 4 5 4 10 0 6 -5 10 -11 10 -5 0
-7 -4 -4 -10z"/>
<path d="M1658 2848 c5 -5 16 -8 23 -6 8 3 3 7 -10 11 -17 4 -21 3 -13 -5z"/>
<path d="M1610 2841 c0 -6 4 -13 10 -16 6 -3 7 1 4 9 -7 18 -14 21 -14 7z"/>
<path d="M1796 2841 c-3 -5 1 -11 9 -14 9 -4 12 -1 8 9 -6 16 -10 17 -17 5z"/>
<path d="M1841 2801 c-10 -7 -7 -9 12 -8 14 1 23 5 20 10 -6 9 -15 9 -32 -2z"/>
<path d="M1913 2793 c0 -8 5 -9 11 -4 6 5 19 7 29 6 9 -2 17 0 17 5 0 4 -13 7
-28 7 -16 -1 -29 -7 -29 -14z"/>
<path d="M1976 2758 c3 -5 10 -6 15 -3 13 9 11 12 -6 12 -8 0 -12 -4 -9 -9z"/>
<path d="M2206 2723 c-6 -14 -5 -15 5 -6 7 7 10 15 7 18 -3 3 -9 -2 -12 -12z"/>
<path d="M2238 2723 c7 -3 16 -2 19 1 4 3 -2 6 -13 5 -11 0 -14 -3 -6 -6z"/>
<path d="M2345 2720 c-3 -5 -1 -10 4 -10 6 0 11 5 11 10 0 6 -2 10 -4 10 -3 0
-8 -4 -11 -10z"/>
<path d="M2375 2721 c-3 -5 -2 -12 3 -15 5 -3 9 1 9 9 0 17 -3 19 -12 6z"/>
<path d="M2356 2678 c3 -5 10 -6 15 -3 13 9 11 12 -6 12 -8 0 -12 -4 -9 -9z"/>
<path d="M537 2579 c7 -7 15 -10 18 -7 3 3 -2 9 -12 12 -14 6 -15 5 -6 -5z"/>
<path d="M537 2099 c7 -7 15 -10 18 -7 3 3 -2 9 -12 12 -14 6 -15 5 -6 -5z"/>
<path d="M1780 1880 c-9 -6 -10 -10 -3 -10 6 0 15 5 18 10 8 12 4 12 -15 0z"/>
<path d="M1838 1883 c6 -2 10 -9 7 -14 -4 -5 1 -6 10 -2 13 5 14 7 3 14 -7 5
-17 8 -23 8 -5 0 -4 -3 3 -6z"/>
<path d="M537 1859 c7 -7 15 -10 18 -7 3 3 -2 9 -12 12 -14 6 -15 5 -6 -5z"/>
<path d="M2015 1800 c3 -5 8 -10 11 -10 2 0 4 5 4 10 0 6 -5 10 -11 10 -5 0
-7 -4 -4 -10z"/>
<path d="M2173 1776 c0 -8 6 -12 14 -9 7 3 10 9 7 14 -8 14 -21 11 -21 -5z"/>
<path d="M2126 1758 c3 -5 10 -6 15 -3 13 9 11 12 -6 12 -8 0 -12 -4 -9 -9z"/>
<path d="M2210 1761 c0 -5 7 -12 16 -15 14 -5 15 -4 4 9 -14 17 -20 19 -20 6z"/>
<path d="M537 1539 c7 -7 15 -10 18 -7 3 3 -2 9 -12 12 -14 6 -15 5 -6 -5z"/>
<path d="M4306 1261 c-3 -5 1 -14 9 -21 10 -9 15 -9 15 -1 0 6 -5 11 -11 11
-5 0 -7 5 -4 10 3 6 4 10 1 10 -3 0 -7 -4 -10 -9z"/>
<path d="M4221 1226 c-15 -17 -1 -28 19 -15 11 6 12 9 2 9 -7 0 -10 5 -7 10 9
15 -1 12 -14 -4z"/>
<path d="M848 1202 c-12 -15 -11 -16 5 -3 15 12 21 9 19 -10 -1 -3 5 -6 13 -6
16 0 9 23 -10 31 -7 2 -19 -3 -27 -12z"/>
<path d="M4190 1201 c0 -6 4 -13 10 -16 6 -3 7 1 4 9 -7 18 -14 21 -14 7z"/>
<path d="M974 1148 c-6 -9 -6 -9 23 -12 12 -2 19 2 17 9 -6 13 -32 16 -40 3z"/>
<path d="M4033 1147 c-16 -9 -20 -16 -13 -27 8 -13 10 -12 10 3 0 20 16 23 23
5 3 -7 4 -3 4 10 -1 12 -1 22 -2 22 0 -1 -10 -6 -22 -13z"/>
<path d="M1070 1120 c0 -5 5 -10 10 -10 6 0 10 5 10 10 0 6 -4 10 -10 10 -5 0
-10 -4 -10 -10z"/>
<path d="M1094 1098 c-4 -6 -3 -8 4 -4 5 3 12 1 14 -6 3 -8 6 -9 11 -1 4 6 0
13 -8 17 -8 3 -17 0 -21 -6z"/>
<path d="M1172 1077 c10 -8 14 -18 10 -22 -4 -5 -1 -5 6 -1 17 10 15 14 -10
26 -21 10 -21 10 -6 -3z"/>
<path d="M1299 1024 c6 -12 8 -24 5 -27 -3 -3 2 -4 13 -2 10 1 27 -5 37 -14
11 -9 16 -10 12 -3 -5 8 -1 11 16 8 13 -3 25 -5 28 -5 3 -1 -1 -5 -9 -10 -9
-6 -10 -11 -2 -15 6 -4 11 -2 11 4 0 7 7 10 18 6 10 -3 7 1 -7 11 -24 18 -39
22 -78 26 -13 2 -30 12 -38 22 -16 20 -16 20 -6 -1z"/>
<path d="M1250 1020 c0 -5 5 -10 11 -10 5 0 7 5 4 10 -3 6 -8 10 -11 10 -2 0
-4 -4 -4 -10z"/>
<path d="M1458 953 c6 -2 9 -10 6 -15 -4 -7 -2 -8 5 -4 13 9 5 26 -12 25 -9 0
-8 -2 1 -6z"/>
<path d="M3550 938 c0 -4 11 -7 25 -6 28 3 24 11 -5 13 -11 1 -20 -2 -20 -7z"/>
<path d="M1510 920 c0 -5 5 -10 10 -10 6 0 10 5 10 10 0 6 -4 10 -10 10 -5 0
-10 -4 -10 -10z"/>
<path d="M3531 914 c0 -11 3 -14 6 -6 3 7 2 16 -1 19 -3 4 -6 -2 -5 -13z"/>
<path d="M1541 907 c-8 -10 -7 -14 4 -14 8 0 12 4 9 8 -2 4 2 10 8 12 8 4 9 6
2 6 -6 1 -17 -5 -23 -12z"/>
<path d="M3465 901 c-3 -5 -1 -12 5 -16 6 -4 7 -11 4 -17 -4 -7 -2 -8 5 -4 8
6 9 12 2 20 -6 7 -8 16 -4 19 3 4 4 7 0 7 -3 0 -8 -4 -12 -9z"/>
<path d="M3355 850 c-3 -5 -1 -10 4 -10 6 0 11 5 11 10 0 6 -2 10 -4 10 -3 0
-8 -4 -11 -10z"/>
<path d="M3250 800 c0 -5 5 -10 11 -10 5 0 7 5 4 10 -3 6 -8 10 -11 10 -2 0
-4 -4 -4 -10z"/>
<path d="M3136 754 c-8 -20 -8 -24 2 -24 4 0 8 9 9 20 2 24 -3 26 -11 4z"/>
<path d="M2996 703 c-4 -5 -12 -9 -17 -9 -5 -1 -13 -2 -19 -3 -5 0 -10 -6 -10
-13 0 -6 3 -8 7 -5 3 4 13 1 22 -5 9 -7 13 -8 8 -3 -4 4 0 17 10 27 15 17 15
26 -1 11z"/>
<path d="M2906 653 c-6 -14 -5 -15 5 -6 7 7 10 15 7 18 -3 3 -9 -2 -12 -12z"/>
<path d="M2266 603 c-6 -14 -5 -15 5 -6 7 7 10 15 7 18 -3 3 -9 -2 -12 -12z"/>
<path d="M2275 580 c-3 -5 -1 -10 4 -10 6 0 11 5 11 10 0 6 -2 10 -4 10 -3 0
-8 -4 -11 -10z"/>
<path d="M2727 573 c4 -11 2 -14 -5 -9 -7 4 -12 2 -12 -3 0 -16 20 -13 26 3 3
9 13 12 22 9 9 -4 14 -3 11 1 -4 4 -16 8 -27 11 -16 3 -19 0 -15 -12z"/>
<path d="M2306 562 c-3 -5 1 -9 9 -9 8 0 12 4 9 9 -3 4 -7 8 -9 8 -2 0 -6 -4
-9 -8z"/>
<path d="M2445 530 c-3 -5 -13 -6 -23 -3 -9 3 -14 3 -11 -1 9 -10 50 -16 44
-6 -3 4 1 11 7 13 9 4 10 6 1 6 -6 1 -14 -3 -18 -9z"/>
</g>
</svg>
