<svg width="15" height="9" viewBox="0 0 15 9" fill="none" xmlns="http://www.w3.org/2000/svg">
<path d="M0.47838 6.82886L6.76739 0.389946C6.81839 0.337218 6.87949 0.29529 6.94703 0.266655C7.01457 0.23802 7.08718 0.223263 7.16054 0.223263C7.2339 0.223263 7.30651 0.23802 7.37405 0.266655C7.44159 0.29529 7.50268 0.337219 7.55369 0.389946C7.65825 0.497784 7.71672 0.642087 7.71672 0.792289C7.71672 0.942492 7.65825 1.0868 7.55369 1.19463L1.26468 7.63355C1.21368 7.68627 1.15259 7.7282 1.08504 7.75684C1.0175 7.78547 0.944892 7.80023 0.871531 7.80023C0.798171 7.80023 0.72556 7.78547 0.658018 7.75684C0.590477 7.7282 0.529386 7.68627 0.47838 7.63355C0.373825 7.52571 0.315354 7.38141 0.315354 7.2312C0.315354 7.081 0.373825 6.9367 0.47838 6.82886Z" fill="white"/>
<path d="M13.0509 7.63384L6.76191 1.19492C6.65735 1.08709 6.59888 0.942783 6.59888 0.792581C6.59888 0.642378 6.65735 0.498075 6.76191 0.390237C6.81291 0.33751 6.87401 0.295581 6.94155 0.266945C7.00909 0.23831 7.0817 0.223554 7.15506 0.223554C7.22842 0.223554 7.30103 0.238311 7.36857 0.266946C7.43611 0.29558 7.4972 0.337509 7.54821 0.390237L13.8372 6.82915C13.9416 6.93717 13.9998 7.08158 13.9995 7.23178C13.9993 7.38198 13.9405 7.52619 13.8358 7.63384C13.7848 7.68635 13.7238 7.72809 13.6564 7.7566C13.589 7.7851 13.5165 7.79979 13.4434 7.79979C13.3702 7.79979 13.2977 7.7851 13.2303 7.7566C13.1629 7.72809 13.1019 7.68635 13.0509 7.63384Z" fill="white"/>
</svg>
