<svg width="97" height="36" viewBox="0 0 97 36" fill="none" xmlns="http://www.w3.org/2000/svg">
<path d="M38.2243 35.5296C35.6601 34.9973 33.8501 33.111 33.8168 30.9363C33.7994 29.8069 34.0559 29.0626 34.7589 28.2019C36.801 25.7017 41.1408 25.3511 43.7235 27.4775C44.9448 28.4831 45.2902 29.2292 45.2923 30.8666C45.2939 32.1227 45.2478 32.3319 44.8229 32.9957C43.8405 34.5304 42.0347 35.5062 39.9918 35.6064C39.3702 35.6369 38.5749 35.6025 38.2243 35.5296ZM40.6194 32.1021C41.5063 31.5909 41.6529 30.4092 40.9014 29.8283C39.5925 28.8165 37.6132 29.5745 37.8267 31.0059C37.9888 32.0932 39.5629 32.711 40.6194 32.1021ZM78.03 35.489C76.2772 35.0805 74.7392 33.8956 74.0787 32.4447C73.6604 31.5258 73.7649 29.7111 74.2864 28.8363C74.9027 27.8025 75.7637 27.0882 76.9955 26.5891C78.0074 26.179 78.2801 26.1305 79.5725 26.1305C80.8641 26.1305 81.1381 26.1792 82.149 26.5884C84.2284 27.4299 85.3648 28.9445 85.3592 30.8666C85.3533 32.8715 84.0911 34.4564 81.851 35.2718C80.8816 35.6247 79.0571 35.7284 78.03 35.489ZM80.7985 31.9228C81.2731 31.5738 81.3513 31.4244 81.3513 30.8666C81.3513 30.3088 81.2731 30.1594 80.7985 29.8105C80.3845 29.5061 80.0769 29.404 79.5739 29.404C79.0708 29.404 78.7633 29.5061 78.3493 29.8105C77.8746 30.1594 77.7964 30.3088 77.7964 30.8666C77.7964 31.4244 77.8746 31.5738 78.3493 31.9228C78.7633 32.2272 79.0708 32.3292 79.5739 32.3292C80.0769 32.3292 80.3845 32.2272 80.7985 31.9228ZM22.1875 27.247V24.8072H21.5869C20.2354 24.8072 19.6453 23.3952 20.6509 22.5677L21.1458 22.1605H26.4996C32.3799 22.1605 32.6157 22.1309 33.0136 21.3405C33.2711 20.8288 33.1177 20.1859 32.6558 19.8418C32.3315 19.6002 31.7932 19.5791 24.2896 19.5139L16.27 19.4443L15.8046 19.0612C15.1552 18.5266 15.1552 17.7152 15.8047 17.1807L16.2702 16.7976L29.9083 16.728L43.5464 16.6583L43.9549 16.2675C44.495 15.7507 44.495 15.0586 43.9548 14.5418L43.5463 14.151L22.63 14.0813L1.71377 14.0117L1.35776 13.7187C1.16196 13.5575 0.961443 13.1784 0.912171 12.8761C0.837904 12.4205 0.900328 12.2505 1.27717 11.8819L1.73175 11.4374L26.6833 11.4012L51.6348 11.365L52.1003 10.9819C52.75 10.4473 52.75 9.63605 52.1003 9.10143L51.6348 8.71836L31.7904 8.64872C20.876 8.61041 11.843 8.5244 11.7171 8.45759C11.2687 8.21958 10.9831 7.40891 11.1772 6.92494C11.5651 5.95773 10.8828 6.00207 25.3797 6.00207C34.3972 6.00207 38.547 5.95542 38.8258 5.8509C39.8517 5.46627 40.0483 4.20778 39.1711 3.64005C38.7419 3.36223 38.5336 3.35542 30.454 3.35542C21.6386 3.35542 21.2693 3.32946 20.8469 2.67989C20.529 2.1912 20.6299 1.45335 21.0725 1.02996L21.481 0.639128L43.5869 0.602767L65.6928 0.566406V12.9654V25.3644H66.7085H67.7242V16.0315V6.69856H75.0756H82.4271L82.7703 7.05761C83.0724 7.37368 85.8616 9.78369 92.1885 15.1957C93.2185 16.0767 94.5714 17.2364 95.1949 17.7727L96.3286 18.7478L96.3307 24.2152L96.3328 29.6826L91.8045 29.6825L87.2763 29.6823L86.9863 28.8704C86.5798 27.732 85.5023 26.4701 84.3038 25.7287C81.1358 23.7691 76.8802 24.0139 74.0815 26.3169C73.1053 27.1201 72.218 28.3694 72.0263 29.2106L71.9185 29.6826H59.5987H47.2788L47.1712 29.2104C46.8336 27.7296 44.8608 25.7759 42.9532 25.0333C38.6337 23.3519 33.4655 25.2649 32.0866 29.0558L31.8839 29.6129L27.0357 29.6499L22.1875 29.6869V27.247ZM86.9956 13.9768C83.8962 11.3145 81.2821 9.0902 81.1865 9.03392C81.091 8.97763 78.7846 8.93062 76.0613 8.92944L71.1098 8.92731V13.8724V18.8174H81.8703H92.6309L86.9956 13.9768Z" fill="#F88500"/>
</svg>
