<svg width="55" height="45" viewBox="0 0 55 45" fill="none" xmlns="http://www.w3.org/2000/svg">
<path d="M0.848057 44.4005L0.574219 44.175V32.4954V20.8159L0.848057 20.5903C1.02786 20.4422 1.24799 20.3648 1.48906 20.3648C1.82792 20.3648 2.94207 21.2592 15.9417 31.9674C28.9414 42.6756 30.0272 43.5934 30.0272 43.8725C30.0272 44.0711 29.9332 44.2524 29.7534 44.4005L29.4795 44.6261H15.3007H1.1219L0.848057 44.4005ZM26.9034 43.1326C26.9034 43.1199 21.381 38.5606 14.6313 33.0009L2.35925 22.8923V33.024V43.1557H14.6313C21.381 43.1557 26.9034 43.1453 26.9034 43.1326ZM6.20315 39.9894L5.92931 39.7638V35.8038V31.8438L6.20315 31.6182C6.38265 31.4704 6.60314 31.3926 6.84318 31.3926C7.1769 31.3926 7.6274 31.737 11.9244 35.2766C16.2214 38.8162 16.6395 39.1873 16.6395 39.4622C16.6395 39.6599 16.5452 39.8415 16.3656 39.9894L16.0918 40.215H11.2844H6.47699L6.20315 39.9894ZM13.5157 38.7209C13.5157 38.7079 12.2104 37.6227 10.615 36.3092L7.71434 33.9212V36.3329V38.7446H10.615C12.2104 38.7446 13.5157 38.7339 13.5157 38.7209ZM28.2422 39.4828V38.7446L35.5775 38.744C40.5831 38.7436 43.0546 38.7113 43.3591 38.642C43.9591 38.5056 44.9099 37.7224 45.0755 37.2282C45.1433 37.026 45.199 36.6228 45.1993 36.3322L45.2 35.8038H34.7637H24.3273L24.0535 35.5782L23.7797 35.3527V32.1278V28.903L24.0535 28.6775L24.3273 28.4519H34.7637H45.2V20.8943V13.3367L43.415 14.8049L41.6299 16.2731V21.4017V26.5304L41.3561 26.7559L41.0823 26.9815H30.9197H20.7572L20.4834 26.7559C20.2129 26.5331 20.2095 26.5102 20.2095 24.872V23.2136H19.8316C19.2644 23.2136 17.579 22.7875 16.6953 22.4207C14.1228 21.3529 12.2965 19.4471 11.5541 17.0554C11.2193 15.9768 11.27 14.1481 11.6648 13.0661C12.2017 11.5943 12.9641 10.5197 14.1815 9.51899C15.4768 8.45422 17.0629 7.72954 18.9419 7.34398C20.08 7.11043 22.33 7.13527 23.5007 7.39432C26.2561 8.00402 28.5813 9.53914 29.8179 11.5651L30.2528 12.2777H33.5154H36.778L40.989 8.80803L45.2 5.3384L45.1993 4.60365C45.199 4.19954 45.1433 3.70349 45.0755 3.50131C44.9099 3.00709 43.9591 2.22389 43.3591 2.08747C42.7284 1.94407 11.9709 1.94407 11.3402 2.08747C10.7402 2.22389 9.78939 3.00709 9.62379 3.50131C9.53754 3.75871 9.50042 6.78227 9.49999 13.5872L9.49932 23.3055H8.6044H7.70949L7.73978 13.3067L7.77007 3.30787C8.42124 1.54378 9.5534 0.870624 11.117 0.560547H27.3496H43.5822L44.3343 0.853992C45.6404 1.36365 46.6778 2.44156 46.8439 3.46157C46.8763 3.66033 46.9282 3.82296 46.9593 3.82296C46.9905 3.82296 47.4151 3.50884 47.9029 3.12492C49.0463 2.22505 49.5487 2.03114 50.7223 2.03668C51.764 2.04159 52.4538 2.28054 53.137 2.87306C53.8272 3.47156 54.0569 3.94692 54.0625 4.7879C54.0706 5.99827 54.025 6.05077 50.2714 9.15391L46.9849 11.8709V20.1614V28.4519H50.2812H53.5774L53.8512 28.6775L54.1251 28.903V32.1278V35.3527L53.8512 35.5782L53.5774 35.8038H50.2966H47.0159L46.9583 36.6365C46.9086 37.3534 46.8447 37.5623 46.4982 38.1398C46.0115 38.951 45.354 39.4776 44.3274 39.8782L43.5822 40.169L35.9122 40.195L28.2421 40.221L28.2422 39.4828ZM52.3401 32.1278V29.9223H51.4476H50.555V30.6575V31.3926H49.6625H48.77V30.6575V29.9223H47.8775H46.985V30.6575V31.3926H46.0925H45.2V30.6575V29.9223H44.3074H43.4149V30.6575V31.3926H42.5224H41.6299V30.6575V29.9223H40.7374H39.8449V30.6575V31.3926H38.9524H38.0598V30.6575V29.9223H37.1673H36.2748V30.6575V31.3926H35.3823H34.4898V30.6575V29.9223H33.5973H32.7048V30.6575V31.3926H31.8122H30.9197V30.6575V29.9223H30.0272H29.1347V30.6575V31.3926H28.2422H27.3497V30.6575V29.9223H26.4571H25.5646V32.1278V34.3334H38.9524H52.3401V32.1278ZM39.8449 21.6301V17.7491L38.7416 18.6545L37.6383 19.5599L35.1588 19.9697C33.7951 20.195 32.5602 20.3548 32.4145 20.3247C32.2689 20.2946 32.0643 20.1625 31.9598 20.0311C31.7773 19.8017 31.7891 19.7106 32.2604 17.7121L32.751 15.632L33.8647 14.69L34.9784 13.748H32.8913H30.8042L30.8749 14.736C31.1555 18.657 28.0954 22.0622 23.3822 23.0734C23.0227 23.1505 22.5635 23.2136 22.3616 23.2136H21.9946V24.3624V25.5111H30.9197H39.8449V21.6301ZM20.5287 12.4533C20.7763 12.2882 21.0163 12.2777 24.5291 12.2777C27.8267 12.2777 28.2584 12.2612 28.201 12.138C28.0291 11.769 27.1887 10.8822 26.5297 10.3744C25.6692 9.71134 24.6535 9.22077 23.4635 8.89346C22.7143 8.6874 22.4213 8.65823 21.1021 8.65841C19.7645 8.6586 19.496 8.68623 18.7034 8.90524C16.487 9.5177 14.9087 10.6401 13.8965 12.3236C12.768 14.2005 12.7794 16.1816 13.9299 18.1563C14.365 18.903 14.5811 19.1445 15.4545 19.8593C16.7504 20.92 18.0563 21.4993 19.6601 21.7249L20.1538 21.7944L20.2095 17.2116L20.2653 12.6289L20.5287 12.4533ZM23.8522 21.4265C24.9596 21.0954 25.7701 20.655 26.7364 19.8593C27.7552 19.0204 28.3414 18.2511 28.7672 17.1943C29.0242 16.5564 29.0644 16.3008 29.0711 15.2644C29.0754 14.6073 29.0428 13.9973 28.9987 13.9089C28.9248 13.7606 28.6488 13.748 25.4566 13.748H21.9946V17.7791V21.8101L22.5701 21.7239C22.8867 21.6765 23.4636 21.5427 23.8522 21.4265ZM34.6442 18.5695C34.929 18.5344 35.1841 18.476 35.2113 18.4397C35.2385 18.4035 35.0179 18.1769 34.7211 17.9361C34.4243 17.6953 34.157 17.5333 34.1272 17.576C34.0973 17.6188 34.0385 17.8192 33.9964 18.0213C33.9544 18.2235 33.8918 18.4676 33.8574 18.5637C33.8114 18.6918 33.8389 18.7244 33.9606 18.6859C34.0519 18.6571 34.3595 18.6047 34.6442 18.5695ZM43.6937 12.4616L50.1635 7.13159L49.0202 6.18982L47.8769 5.24805L41.3797 10.6L34.8825 15.952L35.9949 16.8718C36.6068 17.3777 37.1336 17.7916 37.1656 17.7916C37.1976 17.7916 40.1353 15.3931 43.6937 12.4616ZM51.8807 5.7052C52.5123 5.11262 52.5029 4.37368 51.8569 3.8416C51.1789 3.28309 50.1519 3.33128 49.4448 3.95478L49.1712 4.19596L50.2794 5.11225C50.8889 5.61621 51.421 6.02853 51.4618 6.02853C51.5026 6.02853 51.6911 5.88304 51.8807 5.7052ZM11.2844 4.19056V3.45536H12.1769H13.0694V4.19056V4.92575H12.1769H11.2844V4.19056ZM14.8545 4.19056V3.45536H15.747H16.6395V4.19056V4.92575H15.747H14.8545V4.19056ZM18.4245 4.19056V3.45536H19.317H20.2095V4.19056V4.92575H19.317H18.4245V4.19056Z" fill="#F88500"/>
</svg>
