<svg width="72" height="52" viewBox="0 0 72 52" fill="none" xmlns="http://www.w3.org/2000/svg">
<path d="M55.4989 34.1903C53.6537 34.6304 51.4234 34.7669 49.4304 34.5617L48.771 34.4938L49.9245 32.917C52.0146 30.0596 53.3644 27.9184 54.8314 25.1334C56.2815 22.3801 57.2962 19.9415 58.0857 17.3133C58.5205 15.8651 59.0933 13.513 59.0022 13.55C58.9806 13.5588 58.7896 14.0836 58.5776 14.7164C56.3396 21.398 52.0934 28.419 47.5601 32.9343C47.0546 33.4378 46.611 33.8318 46.5746 33.8099C46.1833 33.5742 44.8061 31.9851 44.1339 30.9938C43.4466 29.9801 42.6952 28.2002 42.55 27.2419C42.2711 25.4011 42.6082 23.8725 43.678 22.1275C44.9692 20.0212 46.9445 18.0869 50.4391 15.507C54.5407 12.479 55.7909 11.4033 57.1495 9.73378C58.1128 8.55009 58.9612 6.9591 59.3282 5.64848C59.4401 5.24861 59.5539 4.91123 59.5809 4.89872C59.6658 4.85957 60.5139 6.07014 61.0038 6.92967C61.7299 8.20368 62.3225 9.53208 62.7888 10.931C65.5042 19.0782 64.764 27.0221 60.9113 31.085C60.224 31.8096 59.4192 32.4588 58.6536 32.9063C57.8592 33.3705 56.3334 33.9912 55.4989 34.1903ZM35.3102 42.2688C31.7431 43.4187 28.4599 43.6102 25.346 42.8496C21.9863 42.0294 18.5706 39.7698 16.4828 36.9862C15.5552 35.7495 15.0069 34.7515 13.7187 31.9545C13.051 30.5049 12.357 29.1051 12.1162 28.7219C10.2196 25.7047 7.64247 24.336 2.80781 23.7789L2.08535 23.6956L2.50519 23.3834C3.1481 22.9055 4.56445 22.0363 5.46458 21.5672C6.83057 20.8554 10.2926 19.5508 12.1016 19.066C18.7084 17.2956 26.0861 16.832 32.3632 17.7929C35.9152 18.3366 39.3042 19.4448 41.5346 20.7915L42.0914 21.1278L41.4331 22.3456C40.714 23.6758 40.4705 24.3482 40.3378 25.3686C40.0479 27.6003 40.9928 29.954 43.0444 32.1098C43.3521 32.4332 43.5962 32.7118 43.587 32.7289C43.5777 32.746 43.3725 32.6205 43.131 32.4499C38.2772 29.021 33.0908 26.7756 27.4333 25.6534C25.9903 25.3672 22.8819 24.9439 22.7166 25.011C22.6945 25.0199 23.4382 25.2712 24.3693 25.5693C28.8737 27.0114 32.6309 28.69 35.9533 30.7441C37.1538 31.4864 39.248 33.0565 40.1688 33.9044C41.4707 35.1032 42.7634 36.6725 43.1495 37.5226L43.342 37.9465L42.6899 38.4311C40.6986 39.9109 37.558 41.5442 35.3102 42.2688ZM43.7434 32.9156C43.698 32.8883 43.6725 32.8445 43.6866 32.8184C43.7006 32.7922 43.7527 32.8085 43.8022 32.8546C43.9049 32.9502 43.8667 32.9899 43.7434 32.9156Z" fill="#F88500"/>
</svg>
