<svg width="55" height="45" viewBox="0 0 55 45" fill="none" xmlns="http://www.w3.org/2000/svg">
<path d="M26.1413 44.1336C24.0436 43.0792 1.36735 30.7957 0.985097 30.5067C0.502755 30.142 0.438248 29.2989 0.85521 28.809C1.18548 28.421 2.19604 28.2338 2.71841 28.4638C2.92498 28.5548 8.52794 31.5617 15.1694 35.1458C21.8109 38.7299 27.3203 41.6624 27.4125 41.6624C27.5047 41.6624 33.014 38.7299 39.6555 35.1458C46.297 31.5617 51.9 28.5548 52.1066 28.4638C52.6289 28.2338 53.6395 28.421 53.9698 28.809C54.3867 29.2988 54.3222 30.1419 53.8399 30.5072C53.4582 30.7963 30.7888 43.0757 28.6837 44.1337C28.1448 44.4045 27.5727 44.6261 27.4125 44.6261C27.2523 44.6261 26.6802 44.4045 26.1413 44.1336ZM26.4716 37.134C25.4917 36.6964 25.3093 35.7277 26.0864 35.0883C27.1194 34.2382 29.2133 34.7905 29.2133 35.913C29.2133 36.5038 28.9424 36.8748 28.3165 37.1411C27.6624 37.4195 27.1061 37.4173 26.4716 37.1339V37.134ZM21.8997 34.6368C20.6227 34.1718 20.1938 33.204 20.9254 32.4386C21.3944 31.948 22.0191 31.8666 22.8804 32.1839C24.1556 32.6537 24.5466 33.5942 23.7658 34.3133C23.2521 34.7864 22.6142 34.897 21.8997 34.6368ZM31.6187 34.6988C30.7303 34.4038 30.3923 33.441 30.948 32.7881C31.3256 32.3445 32.5174 31.9046 33.0953 31.9956C33.7 32.0907 34.2557 32.7066 34.2557 33.2819C34.2557 33.8354 33.7407 34.3458 32.8853 34.6398C32.207 34.8731 32.1512 34.8757 31.6187 34.6988ZM16.6975 31.8573C15.8805 31.4855 15.5269 31.0922 15.5269 30.5555C15.5269 29.0925 17.5373 28.7754 18.7525 30.0467C19.2533 30.5706 19.2267 31.0225 18.6624 31.5743C18.1616 32.064 17.3944 32.1745 16.6975 31.8573ZM36.1626 31.5743C35.5983 31.0225 35.5716 30.5706 36.0725 30.0467C36.9116 29.1689 38.4205 28.9906 39.0228 29.6981C39.44 30.1883 39.3754 31.0315 38.8929 31.3931C37.8398 32.1824 36.8515 32.248 36.1626 31.5743ZM26.6236 30.2293C25.1973 29.5475 0.980607 16.3985 0.805012 16.2105C0.430188 15.8091 0.527253 14.9323 0.985097 14.5838C1.20795 14.4142 7.10347 11.1896 14.0862 7.41803C24.7272 1.67056 26.8842 0.560615 27.4125 0.560547C27.9409 0.560477 30.0949 1.66878 40.7387 7.41746C47.7215 11.1888 53.617 14.4135 53.8399 14.5833C54.2977 14.9324 54.3947 15.8091 54.02 16.2106C53.8276 16.4167 29.1477 29.805 28.151 30.244C27.6993 30.4429 27.0576 30.4367 26.6236 30.2293V30.2293ZM11.6551 29.1413C10.8493 28.7954 10.4846 28.3595 10.4846 27.7422C10.4846 26.6652 11.834 26.202 13.0983 26.845C14.9825 27.8032 13.6132 29.9818 11.6551 29.1413ZM41.684 29.21C41.4611 29.1363 41.1449 28.8452 40.9815 28.5632C40.7301 28.1294 40.7195 27.9805 40.9128 27.5966C41.4028 26.6231 43.1802 26.217 43.9603 26.9003C44.7525 27.5942 44.3897 28.6543 43.2012 29.1184C42.5031 29.391 42.2732 29.4049 41.684 29.21ZM6.21782 26.2393C5.88454 26.0636 5.55653 25.721 5.43755 25.4244C5.26378 24.9911 5.28407 24.8396 5.56973 24.4371C6.0288 23.7903 6.80183 23.6159 7.6836 23.9602C8.92302 24.4442 9.30384 25.4759 8.50224 26.1781C7.97374 26.641 7.02804 26.6663 6.21782 26.2393ZM46.3227 26.1781C45.5211 25.4759 45.902 24.4442 47.1414 23.9602C48.0231 23.6159 48.7962 23.7903 49.2552 24.4371C49.5415 24.8405 49.5614 24.9906 49.3862 25.4273C48.9708 26.4631 47.1559 26.9078 46.3227 26.1781ZM1.43984 23.6563C0.825114 23.3726 0.579906 23.0029 0.579906 22.3596C0.579906 21.2744 2.15596 20.8267 3.26736 21.5962C4.30891 22.3174 3.87973 23.6632 2.56084 23.8118C2.17982 23.8547 1.73647 23.7932 1.43984 23.6563ZM51.7807 23.7307C51.2703 23.5615 51.0036 23.1374 51.0036 22.4951C51.0036 22.1017 51.1346 21.8892 51.5576 21.5962C52.6813 20.8182 54.2451 21.2745 54.2451 22.3803C54.2451 23.0179 53.9876 23.3841 53.3483 23.6561C52.7625 23.9054 52.3647 23.9244 51.7807 23.7307Z" fill="#F88500"/>
</svg>
