<svg width="82" height="44" viewBox="0 0 82 44" fill="none" xmlns="http://www.w3.org/2000/svg">
<path d="M17.844 42.6415C17.8792 42.4091 17.9686 42.0213 18.0427 41.7797C18.1168 41.5381 18.1774 41.2235 18.1774 41.0805C18.1774 40.9375 18.2213 40.7982 18.275 40.7709C18.3287 40.7435 18.3727 40.5483 18.3727 40.337C18.3727 40.1258 18.4056 39.9261 18.4459 39.8934C18.5121 39.8396 18.6814 39.1247 18.8288 38.2769C18.8596 38.0999 18.9157 37.937 18.9536 37.9148C18.9915 37.8927 19.0751 37.585 19.1395 37.231C19.2038 36.877 19.2801 36.4607 19.3089 36.3058C19.3378 36.1509 19.3987 35.9518 19.4442 35.8633C19.5225 35.7113 19.7056 34.9142 19.8047 34.2945C19.8294 34.1396 19.8874 33.9405 19.9335 33.852C19.9796 33.7635 20.044 33.5644 20.0767 33.4095C20.2828 32.4322 20.3837 32.0479 20.4481 31.9948C20.4883 31.9617 20.5208 31.8591 20.5204 31.7669C20.5192 31.5262 20.8492 30.478 20.9362 30.4462C20.9765 30.4314 21.0095 30.3319 21.0095 30.2249C21.0095 30.118 21.0487 30.0305 21.0965 30.0305C21.1444 30.0305 21.2112 29.94 21.2449 29.8294C21.2786 29.7187 21.3493 29.6282 21.402 29.6282C21.4546 29.6282 21.4978 29.5905 21.4978 29.5443C21.4978 29.468 22.0532 28.9271 22.3533 28.7112C22.421 28.6625 22.6466 28.4869 22.8545 28.3209C23.0625 28.155 23.2617 28.0192 23.2972 28.0192C23.3327 28.0192 23.4803 27.9287 23.6251 27.8181C23.7699 27.7075 23.9401 27.617 24.0033 27.617C24.0665 27.617 24.1329 27.586 24.1508 27.5483C24.1878 27.4701 25.5475 26.7735 26.1365 26.5309C26.3514 26.4424 26.5491 26.3519 26.576 26.3298C26.6305 26.2848 27.2682 26.0296 28.578 25.5284C29.0614 25.3434 29.5332 25.1584 29.6264 25.1173C29.7196 25.0762 29.8625 25.0425 29.9438 25.0425C30.0251 25.0425 30.0916 25.0063 30.0916 24.9621C30.0916 24.9178 30.1478 24.8816 30.2164 24.8816C30.3513 24.8816 31.1435 24.5534 31.8494 24.2052C32.0911 24.0859 32.4097 23.9461 32.5575 23.8944C32.7052 23.8427 32.826 23.7722 32.826 23.7377C32.826 23.7031 32.8928 23.6748 32.9744 23.6748C33.0561 23.6748 33.2969 23.5843 33.5096 23.4737C33.7223 23.3631 33.9611 23.2726 34.0402 23.2726C34.2235 23.2726 34.3873 22.7947 34.388 22.258L34.3886 21.8469L36.1464 21.6323V21.1691C36.1464 20.5356 35.9703 19.8936 35.7965 19.8936C35.7204 19.8936 35.6581 19.8574 35.6581 19.8131C35.6581 19.7689 35.6138 19.7327 35.5596 19.7327C35.4066 19.7327 34.8768 19.3166 34.8768 19.1964C34.8768 19.1374 34.8436 19.0891 34.803 19.0891C34.6775 19.0891 34.1932 18.0948 34.1932 17.837C34.1932 17.7344 34.1493 17.6281 34.0956 17.6007C34.0419 17.5734 33.9979 17.3389 33.9979 17.0796C33.9979 16.513 33.9346 16.3537 33.7095 16.3537C33.4294 16.3537 32.9407 16.1169 32.7446 15.8862C32.5191 15.6208 32.4459 15.3769 32.3349 14.5214C32.2874 14.1553 32.2163 13.8127 32.1768 13.7601C32.1033 13.6621 31.9761 13.1745 31.8809 12.6259C31.8498 12.4467 31.8729 12.2796 31.936 12.2276C31.9958 12.1784 32.0447 12.0802 32.0447 12.0096C32.0447 11.9389 32.2205 11.7397 32.4354 11.5669C32.8751 11.2131 32.8781 11.2047 32.6887 10.8549C32.6132 10.7155 32.4767 10.4204 32.3854 10.1992C32.2941 9.97793 32.1821 9.72451 32.1366 9.63601C31.8737 9.1253 31.8358 8.7652 31.8866 7.26268C31.944 5.56595 32.0206 4.77463 32.1397 4.648C32.1813 4.60375 32.2455 4.39642 32.2822 4.18727C32.3189 3.97812 32.3904 3.78592 32.441 3.76016C32.4916 3.73439 32.533 3.62493 32.533 3.51692C32.533 3.40892 32.5722 3.32054 32.6201 3.32054C32.668 3.32054 32.7347 3.23021 32.7683 3.11981C32.8019 3.00939 33.0374 2.74498 33.2916 2.5322C33.7485 2.14973 34.2997 1.95286 34.9137 1.95286C35.1166 1.95286 35.1431 1.91534 35.1431 1.6278C35.1431 1.39795 35.2099 1.24419 35.3711 1.10285C35.6535 0.855193 36.4011 0.504729 36.6469 0.504729C36.7476 0.504729 36.8299 0.476997 36.8299 0.4431C36.8299 0.388993 37.6419 0.217593 38.6854 0.0514361C39.2107 -0.0322016 41.8848 -0.00879237 42.5429 0.0851987C43.2983 0.193068 44.0531 0.335911 44.3008 0.417819C44.4082 0.453353 44.6624 0.541746 44.8656 0.614258C45.0689 0.686764 45.2996 0.746086 45.3783 0.746086C45.4571 0.746086 45.5215 0.778067 45.5215 0.817155C45.5215 0.856242 45.5984 0.909497 45.6924 0.935499C46.0064 1.02235 46.8972 1.55783 47.3918 1.95699C47.8509 2.3276 48.4309 3.18582 48.6123 3.76306C48.6401 3.85156 48.699 3.99637 48.7432 4.08487C48.9532 4.50514 49.086 6.06326 49.086 8.10746C49.086 9.30217 49.064 10.459 49.0372 10.6781C48.99 11.0629 48.9985 11.0795 49.2813 11.1596C49.7038 11.2791 49.9988 11.5905 50.0724 11.9947C50.1429 12.3823 50.0569 13.2776 49.9221 13.5595C49.8748 13.6583 49.7606 13.9563 49.6683 14.2218C49.5759 14.4873 49.4621 14.7389 49.4153 14.7809C49.3685 14.823 49.3302 14.9376 49.3302 15.0357C49.3302 15.1338 49.2972 15.2261 49.2569 15.2408C49.2166 15.2556 49.0958 15.4125 48.9884 15.5895C48.7806 15.9317 48.4812 16.1858 48.2803 16.1902C48.2132 16.1916 48.1583 16.233 48.1583 16.282C48.1583 16.3356 48.0661 16.3521 47.9275 16.3235C47.7096 16.2784 47.6936 16.3013 47.638 16.7371C47.5242 17.6305 47.3615 18.4061 47.2721 18.4817C47.2224 18.5237 47.1817 18.6414 47.1817 18.7431C47.1817 18.8449 47.1377 18.9282 47.084 18.9282C47.0303 18.9282 46.9861 18.9734 46.9859 19.0287C46.9852 19.1661 46.4073 19.6682 46.0989 19.7993C45.8642 19.8991 45.8527 19.9307 45.9229 20.282C45.9643 20.4887 46.0008 20.8783 46.004 21.1478L46.0098 21.6377L46.7178 21.7395C47.1072 21.7954 47.4808 21.8544 47.5479 21.8705C47.6305 21.8904 47.67 22.0815 47.67 22.4618C47.67 23.1521 47.7858 23.3755 48.243 23.5667C48.4381 23.6483 48.6197 23.734 48.6465 23.7571C48.783 23.8748 49.244 24.0771 49.3755 24.0771C49.458 24.0771 49.5255 24.1133 49.5255 24.1575C49.5255 24.2018 49.5682 24.238 49.6205 24.238C49.702 24.238 50.533 24.5267 50.9903 24.714C51.1491 24.779 52.9443 25.2395 53.5783 25.3779C53.7931 25.4247 54.0568 25.4913 54.1642 25.5259C54.2716 25.5604 54.5793 25.6502 54.8478 25.7255C55.5431 25.9204 57.3974 26.6166 57.5334 26.7338C57.5603 26.757 57.706 26.8408 57.8573 26.9202C58.3424 27.1747 59.1777 27.8074 59.6331 28.2653C59.8829 28.5165 60.1713 29.1912 60.1707 29.5229C60.1704 29.6641 60.2095 29.7997 60.2575 29.8241C60.3056 29.8486 60.367 30.0046 60.3941 30.1708C60.4566 30.5547 60.6355 31.1493 60.7512 31.3579C60.8003 31.4464 60.8623 31.6275 60.8889 31.7602C60.9865 32.2471 61.1571 32.8097 61.2484 32.9457C61.2999 33.0226 61.3421 33.1747 61.3421 33.2839C61.3421 33.393 61.3829 33.5655 61.4327 33.6671C61.4826 33.7687 61.596 34.1415 61.6849 34.4955C61.7737 34.8495 61.8867 35.202 61.936 35.2788C61.9854 35.3557 62.0257 35.4772 62.0257 35.5489C62.0257 35.721 62.3173 36.7845 62.4207 36.9896C62.4654 37.0781 62.5215 37.2772 62.5454 37.4321C62.6089 37.8433 62.8194 38.6539 62.911 38.84C62.9545 38.9285 63.0104 39.1276 63.0352 39.2824C63.1342 39.9021 63.3173 40.6993 63.3956 40.8513C63.4908 41.0363 63.5978 41.8378 63.6211 42.5407L63.637 43.0235L17.7796 43.064L17.8437 42.6415L17.844 42.6415ZM64.6623 37.82C64.6623 37.6793 64.622 37.453 64.5726 37.3171C64.4807 37.0638 64.2863 36.2934 64.2059 35.8633C64.1811 35.7305 64.1254 35.5495 64.0822 35.461C64.039 35.3725 63.9273 35.0105 63.834 34.6565C63.7407 34.3025 63.6309 33.9405 63.59 33.852C63.522 33.7048 63.1951 32.6462 63.0061 31.9614C62.8212 31.2913 62.6802 30.8658 62.6 30.7356C62.5526 30.6588 62.5139 30.5121 62.5139 30.4098C62.5139 30.3074 62.4711 30.1885 62.4189 30.1455C62.3667 30.1025 62.2944 29.8045 62.2582 29.4832C62.2219 29.162 62.1548 28.8801 62.1089 28.8567C62.0631 28.8334 62.0256 28.7296 62.0256 28.6262C62.0256 28.2224 61.3115 27.2718 60.5119 26.6112C60.0822 26.2562 59.628 25.9005 59.5027 25.8209C59.0662 25.5437 58.0172 25.0425 57.8734 25.0425C57.7938 25.0425 57.7287 25.0149 57.7287 24.9811C57.7287 24.9164 57.0158 24.6403 56.8491 24.6403C56.7957 24.6403 56.7521 24.6066 56.7521 24.5654C56.7521 24.5242 56.6532 24.479 56.5323 24.4648C56.3911 24.4483 56.3015 24.3745 56.2814 24.2581C56.2642 24.1586 56.2894 24.0771 56.3373 24.0771C56.3853 24.0771 56.5261 23.9094 56.6504 23.7044C56.871 23.3405 57.6331 22.6289 57.8022 22.6289C57.8489 22.6289 57.9723 22.5642 58.0764 22.4852C58.1805 22.4061 58.4086 22.2931 58.5831 22.2341L58.9005 22.1267V21.3513C58.9005 20.4829 58.8669 20.4368 58.1557 20.3311C57.9477 20.3002 57.7335 20.25 57.6798 20.2196C57.6261 20.1892 57.3185 20.0988 56.9962 20.0186C56.6739 19.9384 56.3093 19.8413 56.1859 19.8027C56.0625 19.7642 55.8758 19.7327 55.7709 19.7327C55.666 19.7327 55.5801 19.7011 55.5801 19.6625C55.5801 19.6239 55.4137 19.5704 55.2104 19.5436C55.007 19.5169 54.6225 19.4038 54.3559 19.2923C54.0892 19.1809 53.8162 19.0896 53.749 19.0894C53.6819 19.0894 53.627 19.0529 53.627 19.0086C53.627 18.9644 53.6662 18.9282 53.714 18.9282C53.7619 18.9282 53.8287 18.8377 53.8624 18.727C53.8961 18.6164 53.9668 18.5259 54.0195 18.5259C54.0721 18.5259 54.1153 18.4354 54.1153 18.3248C54.1153 18.2142 54.1592 18.1237 54.2129 18.1237C54.2666 18.1237 54.3106 18.052 54.3106 17.9644C54.3106 17.8768 54.382 17.6581 54.4693 17.4783C54.6544 17.0972 54.5957 16.987 54.342 17.2394C53.7441 17.8338 52.6503 18.6302 52.6503 18.4711C52.6503 18.4304 52.6907 18.3628 52.74 18.3207C52.8862 18.1962 53.6269 16.9782 53.6269 16.8625C53.6269 16.8039 53.6709 16.756 53.7246 16.756C53.7783 16.756 53.8222 16.7162 53.8222 16.6675C53.8222 16.5816 54.0415 16.1327 54.2198 15.8536C54.331 15.6796 54.5097 15.1132 54.5698 14.7447C54.595 14.5898 54.6523 14.3907 54.6971 14.3022C54.7849 14.1288 54.9802 13.0076 55.1036 11.9691C55.1456 11.6151 55.2213 11.1082 55.2719 10.8428C55.3224 10.5773 55.4164 10.0161 55.4809 9.59575C55.5453 9.17539 55.6347 8.75906 55.6796 8.67056C55.7244 8.58206 55.7865 8.34674 55.8174 8.14762C55.9165 7.51047 56.1152 6.71461 56.1906 6.65242C56.2308 6.6193 56.2637 6.50723 56.2637 6.40338C56.2637 6.29954 56.304 6.15171 56.3533 6.07487C56.4025 5.99804 56.6321 5.61839 56.8634 5.23125C57.0947 4.84411 57.3181 4.5273 57.3598 4.5273C57.4015 4.5273 57.4356 4.48607 57.4356 4.43569C57.4356 4.31123 58.4304 3.48555 58.5831 3.4833C58.6502 3.48225 58.7052 3.45318 58.7052 3.41864C58.7052 3.38408 58.826 3.31309 58.9737 3.26087C59.1214 3.20865 59.4791 3.0559 59.7685 2.92143C60.0579 2.78695 60.3546 2.67693 60.4277 2.67693C60.5008 2.67693 60.5607 2.64484 60.5607 2.60561C60.5607 2.56638 60.6815 2.51469 60.8292 2.49074C61.2938 2.41541 61.9678 2.25664 62.2024 2.16728C62.5162 2.04777 65.0259 2.05933 65.1736 2.18097C65.2361 2.2325 65.3875 2.27467 65.5099 2.27467C65.7523 2.27467 66.2774 2.42536 67.082 2.72583C67.3655 2.83168 67.6402 2.91828 67.6924 2.91828C67.7446 2.91828 67.7874 2.95026 67.7874 2.98936C67.7874 3.02844 67.8643 3.08042 67.9583 3.10487C68.4834 3.24141 69.9359 4.22283 69.9359 4.44109C69.9359 4.48219 69.9919 4.56366 70.0604 4.62213C70.3043 4.8304 71.1004 6.27196 71.1657 6.62345C71.2022 6.82015 71.2653 7.01729 71.3059 7.06154C71.3465 7.10578 71.4033 7.3049 71.4321 7.50402C71.4609 7.70314 71.5572 8.20999 71.6461 8.63035C71.8705 9.69151 72.1634 11.3289 72.3801 12.7334C72.5749 13.9966 72.8072 14.9798 72.9737 15.2464C73.0216 15.3232 73.0612 15.4499 73.0615 15.528C73.0618 15.606 73.1278 15.7736 73.208 15.9003C73.2882 16.027 73.3539 16.1809 73.3539 16.2422C73.3539 16.3035 73.3978 16.3537 73.4515 16.3537C73.5052 16.3537 73.5492 16.3984 73.5492 16.4531C73.5492 16.5078 73.6657 16.7521 73.808 16.9962C73.9503 17.2402 74.1811 17.6389 74.3207 17.8822C74.4604 18.1256 74.6173 18.3499 74.6694 18.3807C74.7216 18.4115 74.7368 18.4593 74.7031 18.487C74.6088 18.5647 73.6327 17.8389 73.0215 17.2365L72.7379 16.957L72.8076 17.2788C72.9353 17.8683 73.2576 18.5688 73.4554 18.6867C73.4925 18.7089 73.5538 18.8086 73.5916 18.9084C73.643 19.0441 73.6155 19.102 73.4827 19.1383C73.385 19.165 73.115 19.2568 72.8828 19.3423C72.6506 19.4277 72.331 19.519 72.1727 19.5451C72.0144 19.5712 71.8613 19.624 71.8323 19.6626C71.8034 19.7011 71.6719 19.7326 71.5401 19.7326C71.4082 19.7326 71.2241 19.7658 71.1308 19.8064C70.9515 19.8845 69.675 20.2211 68.995 20.3697C68.3998 20.4997 68.3641 20.5671 68.4378 21.422C68.5005 22.15 68.5096 22.1722 68.7795 22.2561C68.9321 22.3035 69.0569 22.3706 69.0569 22.4051C69.0569 22.4397 69.1037 22.468 69.161 22.468C69.2773 22.468 69.8777 22.8237 70.1792 23.0713C70.287 23.1598 70.4631 23.3765 70.5705 23.5528C70.6779 23.7291 70.8208 23.9218 70.8879 23.9809C70.9551 24.0401 71.01 24.1167 71.01 24.1513C71.01 24.2999 71.6081 24.7109 71.9528 24.7992C72.3343 24.8969 72.7047 25.0239 73.3965 25.2944C73.608 25.377 73.8387 25.4447 73.9092 25.4447C73.9797 25.4447 74.0374 25.4802 74.0374 25.5236C74.0374 25.567 74.1472 25.6252 74.2815 25.653C74.4158 25.6808 74.5256 25.7306 74.5256 25.7638C74.5256 25.8529 75.4898 26.2492 75.7065 26.2492C75.809 26.2492 75.8928 26.2772 75.8928 26.3114C75.8928 26.3808 76.6256 26.5584 77.1874 26.625C77.3892 26.6489 77.5785 26.7008 77.6082 26.7404C77.6379 26.78 77.7714 26.8123 77.9049 26.8123C78.0384 26.8123 78.4423 26.8716 78.8025 26.9441C79.5107 27.0866 80.419 27.566 80.5308 27.8563C80.5653 27.9458 80.6346 28.0191 80.6847 28.0191C80.7347 28.0191 80.7757 28.0734 80.7757 28.1398C80.7757 28.2062 80.8087 28.2607 80.849 28.261C80.9448 28.2618 81.264 28.7252 81.264 28.8637C81.264 28.9228 81.3153 28.9852 81.378 29.0024C81.498 29.0354 81.6048 30.3582 81.7142 33.1681C81.7461 33.9867 81.8117 34.6909 81.8599 34.7329C81.9082 34.7749 81.9476 35.5442 81.9476 36.4425V38.0756H64.6621L64.6623 37.82ZM0.598511 36.753C0.598511 36.5565 0.554565 36.3733 0.500853 36.346C0.378858 36.2839 0.369258 34.3564 0.490412 34.2502C0.538382 34.2082 0.603823 33.7575 0.635845 33.2486C0.69897 32.2454 0.896182 31.0444 1.01356 30.9485C1.05384 30.9156 1.0868 30.8019 1.0868 30.6959C1.0868 30.4889 1.33585 29.7579 1.48449 29.5287C1.53432 29.4519 1.5751 29.3372 1.5751 29.2738C1.5751 29.2104 1.63911 29.056 1.71735 28.9308C1.7956 28.8055 1.91619 28.5853 1.98534 28.4415C2.05449 28.2977 2.13649 28.1801 2.16757 28.1801C2.19865 28.1801 2.32518 28.0133 2.44876 27.8095C2.73119 27.3436 3.93873 26.3291 4.45602 26.1232C4.67087 26.0376 4.86131 25.9405 4.87921 25.9073C4.89711 25.8741 4.95226 25.847 5.00176 25.847C5.05126 25.847 5.3195 25.7565 5.59785 25.6458C5.87619 25.5352 6.16163 25.4447 6.23215 25.4447C6.30266 25.4447 6.36035 25.4089 6.36035 25.3652C6.36035 25.3215 6.53711 25.2624 6.75315 25.234C6.96919 25.2055 7.16954 25.1508 7.19838 25.1123C7.22721 25.0739 7.3367 25.0425 7.44168 25.0425C7.54666 25.0425 7.70886 25.0108 7.80214 24.972C7.89541 24.9333 8.23539 24.8361 8.55766 24.7562C8.87993 24.6762 9.18756 24.5888 9.24127 24.5619C9.29498 24.535 9.59162 24.4453 9.90046 24.3624C10.2093 24.2796 10.462 24.1815 10.462 24.1444C10.462 24.1074 10.5609 24.0759 10.6817 24.0745C10.8026 24.0731 10.9868 24.0188 11.091 23.9538C11.1953 23.8888 11.3601 23.8357 11.4572 23.8357C11.5544 23.8357 11.6339 23.7995 11.6339 23.7552C11.6339 23.711 11.7004 23.6748 11.7817 23.6748C11.863 23.6748 12.0058 23.6403 12.0991 23.5982C12.1924 23.5561 12.4445 23.4584 12.6593 23.3812C12.8742 23.3039 13.0719 23.2197 13.0988 23.194C13.1256 23.1684 13.3454 23.077 13.5871 22.9909C13.8288 22.9049 14.0485 22.8154 14.0754 22.792C14.139 22.7367 15.148 22.3348 15.3693 22.2766C15.4633 22.2519 15.5402 22.1582 15.5402 22.0683C15.5402 21.9784 15.5797 21.9048 15.6281 21.9048C15.6764 21.9048 15.7395 21.751 15.7683 21.5629C15.7971 21.3749 15.8921 20.9314 15.9795 20.5774C16.2681 19.4079 16.2679 19.4429 15.9896 19.1957C15.8499 19.0716 15.7355 18.9244 15.7355 18.8686C15.7355 18.8128 15.6964 18.7672 15.6485 18.7672C15.6006 18.7672 15.5338 18.6767 15.5001 18.5661C15.4664 18.4554 15.3957 18.3649 15.3431 18.3649C15.2904 18.3649 15.2473 18.3106 15.2473 18.2443C15.2473 18.1779 15.2033 18.1236 15.1496 18.1236C15.0959 18.1236 15.0519 18.0658 15.0519 17.9952C15.0519 17.9246 14.9899 17.7707 14.914 17.6533C14.6511 17.2465 14.3603 16.6625 14.303 16.4265C14.2714 16.2961 14.2072 16.1699 14.1604 16.1461C14.1136 16.1223 14.0754 16.0109 14.0754 15.8987C14.0754 15.7864 14.0063 15.4989 13.9219 15.2598C13.7828 14.8655 13.7427 14.825 13.4912 14.825C13.1868 14.825 12.741 14.4636 12.665 14.1551C12.4829 13.4159 12.4058 12.7935 12.3875 11.9164C12.3647 10.8218 12.3696 10.8101 12.963 10.5149C13.1169 10.4383 13.1222 10.3997 13.0093 10.1751C12.83 9.8184 12.8014 6.26918 12.9767 6.12437C13.0438 6.06893 13.0988 5.96174 13.0988 5.88618C13.0988 5.39721 14.4359 4.04633 15.3205 3.64158C15.5488 3.53713 15.7355 3.42606 15.7355 3.39476C15.7355 3.36346 15.8454 3.31513 15.9797 3.28736C16.114 3.2596 16.2238 3.20137 16.2238 3.15797C16.2238 3.11455 16.2898 3.07904 16.3703 3.07904C16.4509 3.07904 16.5168 3.04528 16.5168 3.00401C16.5168 2.96275 16.597 2.90803 16.6949 2.88242C16.7929 2.8568 16.959 2.77291 17.0641 2.69598C17.1691 2.61905 17.4076 2.48552 17.594 2.39923C17.7804 2.31296 18.0207 2.17423 18.1282 2.09097C18.2356 2.0077 18.4004 1.90505 18.4944 1.86286C18.6457 1.79494 18.6653 1.82794 18.6653 2.15101C18.6653 2.35169 18.6878 2.51588 18.7153 2.51588C18.7427 2.51588 19.2301 2.13294 19.7982 1.66486C20.3663 1.19682 20.8585 0.836368 20.8918 0.863794C20.9251 0.89122 20.9634 1.14719 20.9769 1.43257C20.9904 1.71794 21.0578 2.03316 21.1266 2.13307L21.2519 2.31471L21.2834 2.09347C21.3198 1.83918 21.4993 1.81112 21.9236 1.9934C22.0774 2.0595 22.2642 2.11358 22.3386 2.11358C22.4131 2.11358 22.474 2.14182 22.474 2.17632C22.474 2.21083 22.6937 2.30931 22.9623 2.39516C23.2308 2.48102 23.4505 2.57138 23.4505 2.59597C23.4505 2.62056 23.6479 2.71215 23.8891 2.7995C24.1303 2.88686 24.328 2.98548 24.3285 3.01866C24.329 3.05185 24.3745 3.079 24.4295 3.079C24.5536 3.079 25.831 3.73401 25.8757 3.82054C25.8936 3.85518 25.9628 3.88352 26.0294 3.88352C26.2445 3.88352 27.3319 4.82167 27.5213 5.17075C27.5573 5.23712 27.6124 5.30953 27.6436 5.33165C27.763 5.41628 28.0415 6.18814 28.041 6.43312C28.0407 6.57431 28.0902 6.71515 28.151 6.74609C28.2595 6.80132 28.2301 8.0725 28.0795 9.83697L28.0211 10.5208L28.3726 10.6743C28.566 10.7587 28.7241 10.8763 28.7241 10.9357C28.7241 10.9951 28.7631 11.0437 28.8107 11.0437C28.9675 11.0437 29.0131 11.7124 28.923 12.693C28.8743 13.224 28.8048 13.7751 28.7686 13.9177C28.6899 14.2276 28.2863 14.5836 28.0136 14.5836C27.7727 14.5836 27.5595 14.8021 27.5553 15.0531C27.5511 15.3113 27.2276 16.3071 27.1373 16.3401C27.0969 16.3549 27.0639 16.4475 27.0639 16.546C27.0639 16.6445 26.9994 16.7953 26.9206 16.8812C26.8417 16.9671 26.7758 17.0796 26.7741 17.1313C26.7661 17.3712 25.7614 18.6316 25.0382 19.309C24.8831 19.4542 24.855 19.5703 24.8923 19.9123C24.9176 20.1453 24.9771 20.3703 25.0245 20.4123C25.072 20.4544 25.1107 20.6147 25.1107 20.7685C25.1107 20.9224 25.1832 21.3048 25.2717 21.6184L25.4327 22.1885L26.8098 22.7482C27.5672 23.056 28.3336 23.3777 28.5127 23.463L28.8384 23.6183L28.4638 23.7322C28.2578 23.7949 28.0123 23.8661 27.9183 23.8905C27.8243 23.9149 27.7474 23.9668 27.7474 24.0059C27.7474 24.045 27.6376 24.0769 27.5033 24.0769C27.369 24.0769 27.2591 24.1131 27.2591 24.1574C27.2591 24.2016 27.2042 24.2387 27.1371 24.2396C27.0699 24.2406 26.7513 24.3484 26.4291 24.4792C26.1068 24.61 25.7882 24.7178 25.721 24.7187C25.6539 24.7197 25.599 24.7479 25.599 24.7814C25.599 24.8148 25.4561 24.8922 25.2816 24.9532C25.107 25.0143 24.6906 25.2042 24.3562 25.3751C24.0218 25.5461 23.7198 25.686 23.685 25.686C23.6159 25.686 22.5548 26.3022 22.2107 26.5421C22.0929 26.6243 21.8732 26.7722 21.7225 26.8707C21.222 27.1979 20.8647 27.4915 20.4232 27.9386C20.1829 28.182 19.9637 28.3992 19.9361 28.4213C19.9085 28.4435 19.838 28.534 19.7795 28.6225C19.7209 28.711 19.558 28.9539 19.4174 29.1623C19.0983 29.6351 18.6652 30.6567 18.6652 30.9363C18.6652 31.0517 18.6221 31.2396 18.5694 31.3537C18.5168 31.4677 18.4249 31.7869 18.3653 32.0628C18.2469 32.6103 18.1693 32.916 17.9311 33.7714C17.8448 34.0811 17.7357 34.4794 17.6886 34.6564C17.6415 34.8334 17.5321 35.2316 17.4454 35.5413C17.3587 35.8511 17.2524 36.2674 17.2091 36.4665C17.0533 37.1838 18.0163 37.1102 8.79126 37.1102H0.598419L0.598511 36.753Z" fill="#F88500"/>
</svg>
