<svg width="51" height="44" viewBox="0 0 51 44" fill="none" xmlns="http://www.w3.org/2000/svg">
<g clip-path="url(#clip0_139_1430)">
<path d="M49.5288 24.6374C50.4423 23.3612 50.959 22 50.959 20.3543C50.959 16.5718 47.0821 12.9998 42.0194 12.9998H38.2194C38.7319 11.8989 39.1413 10.5823 39.1413 9.00023C39.1413 2.7445 35.2152 0 29.2173 0C22.7999 0 23.166 8.1583 21.7423 9.33281C19.3728 11.2876 16.5741 15.0431 14.5798 16.5H4.29232C2.45138 16.5 0.958984 17.7312 0.958984 19.25V39.875C0.958984 41.3938 2.45138 42.625 4.29232 42.625H10.959C12.5103 42.625 13.814 41.7507 14.1859 40.5668C18.8222 40.6528 22.0046 43.9991 32.7069 43.9991C33.459 43.9991 34.2923 44 35.0215 44C43.0545 44 46.6867 40.6121 46.7861 35.8076C48.1735 34.2242 48.9005 32.1018 48.5923 30.0506C49.6188 28.4649 50.0156 26.5836 49.5288 24.6374ZM43.0965 29.2634C44.4048 31.0793 43.2277 33.5096 41.6444 34.2109C42.4465 38.4029 39.8102 39.8741 36.1111 39.8741H32.1715C24.7091 39.8741 19.8768 36.624 14.2923 36.624V20.625H15.4298C18.384 20.625 22.5111 14.5329 25.2777 12.2495C28.2319 9.81234 27.2475 5.75008 29.2173 4.125C34.1413 4.125 34.1413 6.95922 34.1413 9.00023C34.1413 12.3664 31.1871 13.8746 31.1871 17.1248H42.0194C44.2184 17.1248 45.9496 18.7498 45.959 20.3749C45.9684 21.9991 44.6236 23.6242 43.6392 23.6242C45.0443 24.875 45.3445 27.5117 43.0965 29.2634ZM10.1257 37.125C10.1257 38.2641 9.00638 39.1875 7.62565 39.1875C6.24492 39.1875 5.12565 38.2641 5.12565 37.125C5.12565 35.9859 6.24492 35.0625 7.62565 35.0625C9.00638 35.0625 10.1257 35.9859 10.1257 37.125Z" fill="#F88500"/>
</g>
<defs>
<clipPath id="clip0_139_1430">
<rect width="50" height="44" fill="white" transform="translate(0.958984)"/>
</clipPath>
</defs>
</svg>
