<svg width="12" height="17" viewBox="0 0 12 17" fill="none" xmlns="http://www.w3.org/2000/svg">
<path d="M5.99984 2.14977C3.8769 2.14977 2.14977 3.8769 2.14977 5.99984C2.14977 6.17988 2.23606 7.20934 3.93967 9.80219C4.62591 10.8466 5.39688 11.8741 6.05371 12.7143C6.5054 12.1308 7.01059 11.4496 7.5059 10.7269C9.78414 7.4026 9.84991 6.1336 9.84991 5.99984C9.84991 3.8769 8.12278 2.14977 5.99984 2.14977ZM5.99984 0C9.31346 0 11.9997 2.68622 11.9997 5.99984C11.9997 9.27685 6.1008 16.1233 6.00098 16.1233C5.99987 16.1233 5.99949 16.1224 5.99984 16.1207C6.03139 15.9654 0 9.31346 0 5.99984C0 2.68622 2.68622 0 5.99984 0Z" fill="#E4E4E4"/>
</svg>
