<svg width="56" height="28" viewBox="0 0 56 28" fill="none" xmlns="http://www.w3.org/2000/svg">
<path fill-rule="evenodd" clip-rule="evenodd" d="M10 0H0V10C0 12.7614 2.23858 15 5 15H15V5C15 2.23858 12.7614 0 10 0ZM10 2H2V10C2 11.6569 3.34315 13 5 13H13V5C13 3.34315 11.6569 2 10 2Z" fill="#F88500"/>
<path d="M29.2239 25.752C28.4319 26.624 27.5199 27.06 26.4879 27.06C25.9119 27.06 25.3799 26.936 24.8919 26.688C24.4119 26.44 23.9919 26.112 23.6319 25.704C23.2799 25.296 23.0039 24.836 22.8039 24.324C22.6039 23.804 22.5039 23.272 22.5039 22.728C22.5039 22.16 22.5999 21.616 22.7919 21.096C22.9919 20.576 23.2679 20.12 23.6199 19.728C23.9719 19.328 24.3879 19.012 24.8679 18.78C25.3479 18.54 25.8719 18.42 26.4399 18.42C26.8559 18.42 27.2359 18.468 27.5799 18.564C27.9239 18.652 28.2279 18.78 28.4919 18.948C28.7639 19.108 28.9959 19.304 29.1879 19.536C29.3879 19.76 29.5559 20.008 29.6919 20.28L29.0439 20.712C28.7639 20.184 28.3999 19.796 27.9519 19.548C27.5039 19.3 26.9959 19.176 26.4279 19.176C25.9559 19.176 25.5279 19.276 25.1439 19.476C24.7679 19.676 24.4439 19.944 24.1719 20.28C23.9079 20.608 23.7039 20.988 23.5599 21.42C23.4159 21.844 23.3439 22.284 23.3439 22.74C23.3439 23.22 23.4239 23.676 23.5839 24.108C23.7519 24.54 23.9799 24.92 24.2679 25.248C24.5559 25.568 24.8919 25.824 25.2759 26.016C25.6679 26.208 26.0919 26.304 26.5479 26.304C27.0359 26.304 27.4999 26.192 27.9399 25.968C28.3879 25.736 28.8159 25.372 29.2239 24.876V23.46H27.3279V22.812H29.9319V27H29.2239V25.752Z" fill="white" fill-opacity="0.45"/>
<path d="M32.4257 18.24H33.2417V25.584C33.2417 25.816 33.3057 26 33.4337 26.136C33.5617 26.264 33.7418 26.328 33.9738 26.328C34.0618 26.328 34.1657 26.316 34.2857 26.292C34.4057 26.268 34.5177 26.236 34.6217 26.196L34.7657 26.856C34.6137 26.92 34.4257 26.972 34.2017 27.012C33.9857 27.052 33.7977 27.072 33.6377 27.072C33.2617 27.072 32.9657 26.968 32.7497 26.76C32.5337 26.544 32.4257 26.244 32.4257 25.86V18.24Z" fill="white" fill-opacity="0.45"/>
<path d="M38.1313 27.12C37.8353 27.12 37.5593 27.072 37.3033 26.976C37.0553 26.872 36.8353 26.732 36.6433 26.556C36.4593 26.38 36.3153 26.176 36.2113 25.944C36.1073 25.704 36.0553 25.448 36.0553 25.176C36.0553 24.904 36.1193 24.652 36.2473 24.42C36.3753 24.188 36.5553 23.988 36.7873 23.82C37.0193 23.652 37.2953 23.524 37.6153 23.436C37.9353 23.34 38.2873 23.292 38.6713 23.292C38.9913 23.292 39.3153 23.32 39.6433 23.376C39.9713 23.432 40.2633 23.512 40.5193 23.616V23.052C40.5193 22.5 40.3633 22.064 40.0513 21.744C39.7393 21.416 39.3073 21.252 38.7553 21.252C38.4353 21.252 38.1073 21.316 37.7713 21.444C37.4353 21.572 37.0953 21.756 36.7513 21.996L36.4633 21.456C37.2713 20.912 38.0553 20.64 38.8153 20.64C39.5993 20.64 40.2153 20.86 40.6633 21.3C41.1113 21.74 41.3353 22.348 41.3353 23.124V25.944C41.3353 26.168 41.4353 26.28 41.6353 26.28V27C41.4993 27.024 41.3953 27.036 41.3233 27.036C41.1153 27.036 40.9513 26.984 40.8313 26.88C40.7193 26.776 40.6593 26.632 40.6513 26.448L40.6273 25.956C40.3393 26.332 39.9753 26.62 39.5353 26.82C39.1033 27.02 38.6353 27.12 38.1313 27.12ZM38.3233 26.496C38.7473 26.496 39.1353 26.416 39.4873 26.256C39.8473 26.096 40.1193 25.884 40.3033 25.62C40.3753 25.548 40.4273 25.472 40.4593 25.392C40.4993 25.304 40.5193 25.224 40.5193 25.152V24.132C40.2473 24.028 39.9633 23.948 39.6673 23.892C39.3793 23.836 39.0833 23.808 38.7793 23.808C38.2033 23.808 37.7353 23.928 37.3753 24.168C37.0153 24.408 36.8353 24.724 36.8353 25.116C36.8353 25.308 36.8713 25.488 36.9433 25.656C37.0233 25.824 37.1273 25.972 37.2553 26.1C37.3913 26.22 37.5513 26.316 37.7353 26.388C37.9193 26.46 38.1153 26.496 38.3233 26.496Z" fill="white" fill-opacity="0.45"/>
<path d="M46.0743 27.12C45.5863 27.12 45.1103 27.04 44.6463 26.88C44.1823 26.72 43.7823 26.488 43.4463 26.184L43.8183 25.632C44.1703 25.92 44.5263 26.136 44.8863 26.28C45.2543 26.424 45.6463 26.496 46.0623 26.496C46.5663 26.496 46.9663 26.396 47.2623 26.196C47.5663 25.988 47.7183 25.696 47.7183 25.32C47.7183 25.144 47.6783 25 47.5983 24.888C47.5183 24.768 47.3983 24.664 47.2383 24.576C47.0863 24.488 46.8903 24.412 46.6503 24.348C46.4183 24.276 46.1463 24.204 45.8343 24.132C45.4743 24.044 45.1623 23.956 44.8983 23.868C44.6343 23.78 44.4143 23.68 44.2383 23.568C44.0703 23.456 43.9423 23.32 43.8543 23.16C43.7743 22.992 43.7343 22.784 43.7343 22.536C43.7343 22.224 43.7943 21.948 43.9143 21.708C44.0423 21.468 44.2103 21.272 44.4183 21.12C44.6343 20.96 44.8823 20.84 45.1623 20.76C45.4503 20.68 45.7543 20.64 46.0743 20.64C46.5543 20.64 46.9903 20.72 47.3823 20.88C47.7743 21.032 48.0903 21.236 48.3303 21.492L47.9343 21.972C47.7023 21.732 47.4183 21.552 47.0823 21.432C46.7543 21.312 46.4103 21.252 46.0503 21.252C45.8343 21.252 45.6343 21.276 45.4503 21.324C45.2663 21.364 45.1023 21.432 44.9583 21.528C44.8223 21.624 44.7143 21.748 44.6343 21.9C44.5543 22.044 44.5143 22.216 44.5143 22.416C44.5143 22.584 44.5423 22.72 44.5983 22.824C44.6543 22.928 44.7463 23.02 44.8743 23.1C45.0023 23.172 45.1623 23.24 45.3543 23.304C45.5543 23.36 45.7943 23.42 46.0743 23.484C46.4743 23.58 46.8263 23.676 47.1303 23.772C47.4343 23.868 47.6863 23.98 47.8863 24.108C48.0943 24.236 48.2503 24.392 48.3543 24.576C48.4583 24.76 48.5103 24.984 48.5103 25.248C48.5103 25.824 48.2903 26.28 47.8503 26.616C47.4103 26.952 46.8183 27.12 46.0743 27.12Z" fill="white" fill-opacity="0.45"/>
<path d="M52.822 27.12C52.334 27.12 51.858 27.04 51.394 26.88C50.93 26.72 50.53 26.488 50.194 26.184L50.566 25.632C50.918 25.92 51.274 26.136 51.634 26.28C52.002 26.424 52.394 26.496 52.81 26.496C53.314 26.496 53.714 26.396 54.01 26.196C54.314 25.988 54.466 25.696 54.466 25.32C54.466 25.144 54.426 25 54.346 24.888C54.266 24.768 54.146 24.664 53.986 24.576C53.834 24.488 53.638 24.412 53.398 24.348C53.166 24.276 52.894 24.204 52.582 24.132C52.222 24.044 51.91 23.956 51.646 23.868C51.382 23.78 51.162 23.68 50.986 23.568C50.818 23.456 50.69 23.32 50.602 23.16C50.522 22.992 50.482 22.784 50.482 22.536C50.482 22.224 50.542 21.948 50.662 21.708C50.79 21.468 50.958 21.272 51.166 21.12C51.382 20.96 51.63 20.84 51.91 20.76C52.198 20.68 52.502 20.64 52.822 20.64C53.302 20.64 53.738 20.72 54.13 20.88C54.522 21.032 54.838 21.236 55.078 21.492L54.682 21.972C54.45 21.732 54.166 21.552 53.83 21.432C53.502 21.312 53.158 21.252 52.798 21.252C52.582 21.252 52.382 21.276 52.198 21.324C52.014 21.364 51.85 21.432 51.706 21.528C51.57 21.624 51.462 21.748 51.382 21.9C51.302 22.044 51.262 22.216 51.262 22.416C51.262 22.584 51.29 22.72 51.346 22.824C51.402 22.928 51.494 23.02 51.622 23.1C51.75 23.172 51.91 23.24 52.102 23.304C52.302 23.36 52.542 23.42 52.822 23.484C53.222 23.58 53.574 23.676 53.878 23.772C54.182 23.868 54.434 23.98 54.634 24.108C54.842 24.236 54.998 24.392 55.102 24.576C55.206 24.76 55.258 24.984 55.258 25.248C55.258 25.824 55.038 26.28 54.598 26.616C54.158 26.952 53.566 27.12 52.822 27.12Z" fill="white" fill-opacity="0.45"/>
<path d="M26.692 1.93H28.766L33.356 14H30.942L29.82 10.991H25.604L24.499 14H22.085L26.692 1.93ZM29.395 9.342L27.729 4.599L25.995 9.342H29.395Z" fill="white"/>
<path d="M34.6798 14V1.93H37.0258V11.943H43.1798V14H34.6798Z" fill="white"/>
<path d="M48.9605 12.011C49.5158 12.011 49.9805 11.8977 50.3545 11.671C50.7398 11.4443 51.0458 11.1497 51.2725 10.787C51.5105 10.4243 51.6748 10.0107 51.7655 9.546C51.8675 9.07 51.9185 8.58267 51.9185 8.084V1.93H54.2475V8.084C54.2475 8.91133 54.1455 9.68767 53.9415 10.413C53.7488 11.1383 53.4372 11.773 53.0065 12.317C52.5872 12.861 52.0432 13.2917 51.3745 13.609C50.7058 13.9263 49.9068 14.085 48.9775 14.085C48.0142 14.085 47.1925 13.9207 46.5125 13.592C45.8438 13.252 45.2998 12.81 44.8805 12.266C44.4612 11.7107 44.1552 11.0703 43.9625 10.345C43.7812 9.61967 43.6905 8.866 43.6905 8.084V1.93H46.0365V8.084C46.0365 8.594 46.0818 9.087 46.1725 9.563C46.2745 10.0277 46.4388 10.4413 46.6655 10.804C46.9035 11.1667 47.2095 11.4613 47.5835 11.688C47.9575 11.9033 48.4165 12.011 48.9605 12.011Z" fill="white"/>
</svg>
